<svg width="12" height="12" viewBox="0 0 12 12" fill="none" xmlns="http://www.w3.org/2000/svg">
<path d="M5.01461 0.586671C4.96122 0.586575 4.90834 0.597003 4.85899 0.617357C4.80964 0.637712 4.76478 0.667594 4.72698 0.705296L0.705109 4.72717C0.628949 4.80335 0.586164 4.90667 0.586164 5.01439C0.586164 5.12211 0.628949 5.22543 0.705109 5.30161C1.09511 5.69161 1.57611 5.77936 1.9263 5.77936C2.07011 5.77936 2.19848 5.76473 2.30005 5.74767L4.84642 8.29405C4.77939 8.56413 4.73589 8.83951 4.71642 9.11711C4.67905 9.68748 4.74242 10.4878 5.30142 11.0468C5.3776 11.123 5.48092 11.1657 5.58864 11.1657C5.69636 11.1657 5.79968 11.123 5.87586 11.0468L8.17442 8.74905L10.7598 11.3344C10.9182 11.4929 11.7502 12.0673 11.9087 11.9089C12.0671 11.7504 11.4927 10.9176 11.3342 10.76L8.74886 8.17461L11.0466 5.87605C11.1228 5.79986 11.1656 5.69655 11.1656 5.58883C11.1656 5.4811 11.1228 5.37779 11.0466 5.30161C10.4876 4.74261 9.6873 4.67842 9.11692 4.71661C8.83932 4.73606 8.56394 4.77956 8.29386 4.84661L5.74748 2.30105C5.76874 2.17732 5.77961 2.05202 5.77998 1.92648C5.77998 1.57711 5.69223 1.09611 5.30142 0.705296C5.22529 0.629352 5.12215 0.586693 5.01461 0.586671Z" fill="#1D1C1D"/>
</svg>
