<svg width="18" height="18" viewBox="0 0 18 18" fill="none" xmlns="http://www.w3.org/2000/svg">
<path fill-rule="evenodd" clip-rule="evenodd" d="M13.5 5.99993C14.7426 5.99993 15.75 4.99257 15.75 3.74993C15.75 2.50729 14.7426 1.49993 13.5 1.49993C12.2573 1.49993 11.25 2.50729 11.25 3.74993C11.25 4.99257 12.2573 5.99993 13.5 5.99993Z" stroke="#333333" stroke-width="1.22693" stroke-linecap="round" stroke-linejoin="round"/>
<path fill-rule="evenodd" clip-rule="evenodd" d="M4.49992 11.2499C5.74256 11.2499 6.74992 10.2426 6.74992 8.99994C6.74992 7.75729 5.74256 6.74994 4.49992 6.74994C3.25728 6.74994 2.24992 7.75729 2.24992 8.99994C2.24992 10.2426 3.25728 11.2499 4.49992 11.2499Z" stroke="#333333" stroke-width="1.22693" stroke-linecap="round" stroke-linejoin="round"/>
<path fill-rule="evenodd" clip-rule="evenodd" d="M13.5 16.4999C14.7426 16.4999 15.75 15.4926 15.75 14.2499C15.75 13.0073 14.7426 11.9999 13.5 11.9999C12.2573 11.9999 11.25 13.0073 11.25 14.2499C11.25 15.4926 12.2573 16.4999 13.5 16.4999Z" stroke="#333333" stroke-width="1.22693" stroke-linecap="round" stroke-linejoin="round"/>
<path d="M6.44225 10.1324L11.5648 13.1174" stroke="#333333" stroke-width="1.22693" stroke-linecap="round" stroke-linejoin="round"/>
<path d="M11.5573 4.88243L6.44225 7.86744" stroke="#333333" stroke-width="1.22693" stroke-linecap="round" stroke-linejoin="round"/>
</svg>
