<svg width="17" height="13" viewBox="0 0 17 13" fill="none" xmlns="http://www.w3.org/2000/svg">
<g clip-path="url(#clip0)">
<path d="M3.86365 12.9365V6.27417L1.82664 4.38392L0 3.33496V11.7608C0 12.4113 0.519629 12.9365 1.15912 12.9365H3.86365Z" fill="#4285F4"/>
<path d="M13.1367 12.9364H15.8412C16.4827 12.9364 17.0004 12.4093 17.0004 11.7607V3.33496L14.9314 4.53642L13.1367 6.27411V12.9364Z" fill="#34A853"/>
<path d="M3.86312 6.27336L3.58594 3.6702L3.86312 1.17871L8.49947 4.70582L13.1358 1.17871L13.4459 3.53569L13.1358 6.27336L8.49947 9.80047L3.86312 6.27336Z" fill="#EA4335"/>
<path d="M13.1367 1.17901V6.27366L17.0004 3.33445V1.76683C17.0004 0.312922 15.3641 -0.515912 14.2186 0.356031L13.1367 1.17901Z" fill="#FBBC04"/>
<path d="M0 3.33448L1.77696 4.68634L3.86365 6.27369V1.17904L2.78176 0.356062C1.63426 -0.515949 0 0.312953 0 1.7668V3.33441V3.33448Z" fill="#C5221F"/>
</g>
<defs>
<clipPath id="clip0">
<rect width="17" height="13" fill="white"/>
</clipPath>
</defs>
</svg>
