<svg width="53" height="52" viewBox="0 0 53 52" fill="none" xmlns="http://www.w3.org/2000/svg">
<rect x="0.53125" width="52" height="52" rx="10" fill="#F4F4F4"/>
<g clip-path="url(#clip0)">
<path d="M38.2316 10.4004H14.8316C12.6808 10.4004 10.9316 12.1495 10.9316 14.3004V37.7004C10.9316 39.8512 12.6808 41.6004 14.8316 41.6004H38.2316C40.3825 41.6004 42.1316 39.8512 42.1316 37.7004V14.3004C42.1316 12.1495 40.3825 10.4004 38.2316 10.4004Z" fill="#1976D2"/>
<path fill-rule="evenodd" clip-rule="evenodd" d="M37.2568 26H32.3818V22.1C32.3818 21.0236 33.2554 21.125 34.3318 21.125H36.2818V16.25H32.3818C30.8303 16.25 29.3423 16.8663 28.2453 17.9634C27.1482 19.0605 26.5318 20.5485 26.5318 22.1V26H22.6318V30.875H26.5318V41.6H32.3818V30.875H35.3068L37.2568 26Z" fill="#FAFAFA"/>
</g>
<defs>
<clipPath id="clip0">
<rect width="31.2" height="31.2" fill="white" transform="translate(10.9316 10.4004)"/>
</clipPath>
</defs>
</svg>
