<svg width="52" height="52" viewBox="0 0 52 52" fill="none" xmlns="http://www.w3.org/2000/svg">
<rect width="52" height="52" rx="10" fill="#F4F4F4"/>
<path d="M38.7471 23.4539H37.7V23.4H26V28.6H33.347C32.2751 31.627 29.3949 33.8 26 33.8C21.6924 33.8 18.2 30.3075 18.2 26C18.2 21.6924 21.6924 18.2 26 18.2C27.9883 18.2 29.7973 18.9501 31.1747 20.1753L34.8517 16.4983C32.5299 14.3344 29.4242 13 26 13C18.8207 13 13 18.8207 13 26C13 33.1792 18.8207 39 26 39C33.1792 39 39 33.1792 39 26C39 25.1283 38.9103 24.2775 38.7471 23.4539Z" fill="#FFC107"/>
<path d="M14.499 19.9492L18.7702 23.0815C19.9259 20.2202 22.7248 18.2 26.0001 18.2C27.9885 18.2 29.7974 18.9501 31.1748 20.1754L34.8518 16.4983C32.53 14.3345 29.4243 13 26.0001 13C21.0068 13 16.6765 15.8191 14.499 19.9492Z" fill="#FF3D00"/>
<path d="M26 39.0006C29.3579 39.0006 32.409 37.7156 34.7159 35.6258L30.6924 32.2211C29.3433 33.2471 27.6949 33.802 26 33.8006C22.6187 33.8006 19.7477 31.6446 18.6661 28.6357L14.4268 31.902C16.5783 36.112 20.9476 39.0006 26 39.0006Z" fill="#4CAF50"/>
<path d="M38.7471 23.4543H37.7V23.4004H26V28.6004H33.347C32.8342 30.0411 31.9107 31.3 30.6904 32.2215L30.6923 32.2202L34.7158 35.6249C34.4311 35.8836 39 32.5004 39 26.0004C39 25.1287 38.9103 24.2779 38.7471 23.4543Z" fill="#1976D2"/>
</svg>
