<svg width="19" height="19" viewBox="0 0 19 19" fill="none" xmlns="http://www.w3.org/2000/svg">
<path d="M8.05465 13.9404L5.99781 15.9972C5.14508 16.85 3.76416 16.85 2.91214 15.9974C2.05996 15.1452 2.05996 13.7642 2.91197 12.9122L7.02638 8.79775C7.87839 7.94571 9.25945 7.94571 10.1115 8.79775C10.3955 9.08178 10.856 9.08178 11.14 8.79775C11.4241 8.51372 11.4241 8.0532 11.14 7.76917C9.71994 6.34908 7.4179 6.34908 5.99781 7.76917L1.88343 11.8835C0.463335 13.3036 0.463335 15.6057 1.88343 17.0258C3.30336 18.4466 5.60557 18.4466 7.02642 17.0258L9.08326 14.9689C9.36729 14.6849 9.36729 14.2244 9.08326 13.9404C8.79924 13.6563 8.33868 13.6564 8.05465 13.9404Z" fill="#979797"/>
<path d="M17.2087 1.70081C15.7886 0.280718 13.4858 0.280718 12.0657 1.70081L9.59796 4.16858C9.31393 4.45261 9.31393 4.91313 9.59796 5.19716C9.88198 5.48118 10.3425 5.48118 10.6265 5.19716L13.0943 2.72939C13.9463 1.87735 15.3281 1.87735 16.1801 2.72939C17.0321 3.5814 17.0321 4.96246 16.1801 5.81447L11.6548 10.3398C10.8028 11.1919 9.42173 11.1919 8.56972 10.3398C8.28569 10.0558 7.82517 10.0558 7.54114 10.3398C7.25712 10.6239 7.25712 11.0844 7.54114 11.3684C8.96124 12.7885 11.2633 12.7885 12.6834 11.3684L17.2087 6.84308C18.6288 5.42299 18.6288 3.12091 17.2087 1.70081Z" fill="#979797"/>
</svg>
