<svg width="15" height="18" viewBox="0 0 15 18" fill="none" xmlns="http://www.w3.org/2000/svg">
<path d="M13.6875 8.1095C12.997 7.804 12.0105 8.2135 11.3125 9.2035C10.854 9.8535 10.719 10.779 10.117 10.8755C9.887 10.912 9.5 10.719 9.5 10.177V2.25C9.5 2.25 9.5 1.25 8.5 1.25C7.5 1.25 7.5 2.25 7.5 2.25V8.0665C7.5 8.052 7 8.0345 7 8.0255V1C7 1 7 0 6 0C5 0 5 1 5 1V8.0265C5 8.035 4.5 8.047 4.5 8.061V2.125C4.5 2.125 4.5 1.125 3.5 1.125C2.5 1.125 2.5 2.125 2.5 2.125V8.444C2.5 8.503 2 8.5695 2 8.643V4.375C2 4.375 2 3.375 1 3.375C0 3.375 0 4.375 0 4.375V12C0 15.3135 2.6865 18 6 18C8.3875 18 10.03 16.701 10.948 15.354C11.7265 14.2115 11.9525 13.025 12 12.6665C12 12.6665 12.0615 11.927 12.578 11.234C13.3125 10.2495 13.828 9.656 14.1405 9.301C14.299 9.122 14.453 8.448 13.6875 8.1095Z" fill="#FFDC5D"/>
</svg>
