<svg width="100" height="100" viewBox="0 0 100 100" fill="none" xmlns="http://www.w3.org/2000/svg">
<g clip-path="url(#clip0)">
<path d="M89.0353 90.6318C73.7335 103.123 25.9546 103.123 10.9651 90.6318C-4.3367 78.1405 -2.77532 24.7405 10.9651 10.6879C24.7055 -3.36472 75.2949 -3.36472 89.0353 10.6879C102.776 24.7405 104.337 78.1407 89.0353 90.6318Z" fill="#27AE60"/>
<g opacity="0.2">
<path opacity="0.5" d="M50.3138 68.7719C36.5734 79.7018 21.2716 85.3228 6.90677 85.6351C-3.71087 67.5228 -1.52481 23.4913 10.9664 10.6878C22.2085 -0.866505 57.4962 -3.05257 77.7946 4.12986C82.7909 24.7404 72.4857 50.9719 50.3138 68.7719Z" fill="white"/>
</g>
<path d="M42.8182 77.8277C40.6321 77.8277 38.4463 76.8908 37.1971 75.0172L19.7095 52.533C17.2112 49.4102 17.8359 45.0383 20.9586 42.54C24.0814 40.0417 28.4533 40.6664 30.9516 43.7891L42.8182 59.0909L69.0498 25.0524C71.5481 21.9296 75.92 21.305 79.0427 23.8032C82.1655 26.3015 82.7902 30.6734 80.2919 33.7962L48.4392 75.0172C46.8778 76.5785 45.0042 77.8277 42.8182 77.8277Z" fill="white"/>
</g>
<defs>
<clipPath id="clip0">
<rect width="100" height="100" fill="white"/>
</clipPath>
</defs>
</svg>
