<svg width="53" height="52" viewBox="0 0 53 52" fill="none" xmlns="http://www.w3.org/2000/svg">
<rect x="0.250977" width="52" height="52" rx="10" fill="#F4F4F4"/>
<g clip-path="url(#clip0)">
<path d="M41.8514 17.3016C40.6777 17.8135 39.4365 18.1536 38.1659 18.3117C39.5049 17.5173 40.506 16.2594 40.9797 14.7763C39.7259 15.5199 38.3541 16.0436 36.9237 16.3246C36.0467 15.3882 34.9083 14.7372 33.6565 14.4561C32.4046 14.1751 31.0972 14.277 29.9041 14.7487C28.7109 15.2203 27.6872 16.0399 26.9659 17.101C26.2446 18.162 25.8591 19.4155 25.8594 20.6985C25.8594 21.2055 25.9023 21.693 26.0076 22.1571C23.463 22.0323 20.9734 21.3719 18.7016 20.219C16.4297 19.0661 14.4267 17.4467 12.8237 15.4666C12.0024 16.8742 11.7485 18.542 12.1136 20.1302C12.4788 21.7185 13.4356 23.1079 14.7893 24.0154C13.7767 23.9883 12.7856 23.7181 11.8994 23.2276V23.2978C11.9011 24.7748 12.4116 26.2061 13.3449 27.3508C14.2783 28.4955 15.5776 29.2837 17.024 29.5827C16.4768 29.7269 15.9128 29.7977 15.347 29.7933C14.9406 29.8005 14.5346 29.7639 14.136 29.6841C14.5493 30.9536 15.346 32.0637 16.4163 32.8617C17.4867 33.6597 18.7781 34.1062 20.1128 34.1398C17.8487 35.9105 15.0564 36.871 12.1821 36.8679C11.6576 36.8679 11.1545 36.8445 10.6514 36.7801C13.5761 38.6649 16.9843 39.6619 20.4638 39.6505C32.234 39.6505 38.669 29.9005 38.669 21.4492C38.669 21.1665 38.6592 20.8935 38.6456 20.6224C39.9071 19.7195 40.9935 18.5942 41.8514 17.3016Z" fill="#03A9F4"/>
</g>
<defs>
<clipPath id="clip0">
<rect width="31.2" height="31.2" fill="white" transform="translate(10.6514 10.4004)"/>
</clipPath>
</defs>
</svg>
