<svg width="210" height="72" viewBox="0 0 210 72" fill="none" xmlns="http://www.w3.org/2000/svg">
<rect x="21.7539" y="10.4287" width="20" height="20" rx="1.06355" fill="#00B87C"/>
<rect x="15.6367" y="34.4287" width="20" height="20" rx="1.06355" fill="#FEA162"/>
<rect x="45.7539" y="17.5703" width="20" height="20" rx="1.06355" fill="#1A61DB"/>
<rect x="39.6367" y="41.5703" width="20" height="20" rx="1.06355" fill="#DC1AA3"/>
<path d="M100.684 22.8405V25.2016C100.684 25.5371 100.626 25.8661 100.509 26.1886C100.406 26.5112 100.258 26.8144 100.064 27.0982L86.8268 46.0063H100.258V51.0381H78.5049V48.5222C78.5049 48.2254 78.5565 47.9351 78.6598 47.6513C78.763 47.3545 78.9049 47.0836 79.0855 46.8385L92.3618 27.8724H79.5887V22.8405H100.684ZM122.89 45.8708C123.767 45.8708 124.548 45.7289 125.232 45.445C125.928 45.1483 126.515 44.729 126.993 44.1871C127.47 43.6452 127.831 42.9872 128.077 42.213C128.335 41.426 128.464 40.5358 128.464 39.5423V22.8405H135.005V39.5423C135.005 41.2712 134.721 42.8582 134.153 44.3032C133.599 45.7482 132.799 46.9933 131.754 48.0383C130.709 49.0834 129.438 49.8963 127.941 50.4768C126.444 51.0574 124.761 51.3477 122.89 51.3477C121.006 51.3477 119.316 51.0574 117.819 50.4768C116.323 49.8963 115.052 49.0834 114.007 48.0383C112.962 46.9933 112.162 45.7482 111.607 44.3032C111.052 42.8582 110.775 41.2712 110.775 39.5423V22.8405H117.316V39.523C117.316 40.5164 117.439 41.4067 117.684 42.1937C117.942 42.9678 118.31 43.6323 118.787 44.1871C119.264 44.729 119.845 45.1483 120.529 45.445C121.226 45.7289 122.013 45.8708 122.89 45.8708ZM153.272 40.6067V51.0381H146.731V22.8405H155.904C157.943 22.8405 159.678 23.0534 161.11 23.4792C162.555 23.8921 163.729 24.4727 164.633 25.221C165.549 25.9693 166.213 26.8531 166.626 27.8724C167.039 28.8916 167.245 30.0012 167.245 31.2011C167.245 32.1172 167.123 32.9816 166.877 33.7944C166.632 34.6073 166.265 35.362 165.774 36.0587C165.297 36.7426 164.703 37.3554 163.994 37.8973C163.297 38.4392 162.491 38.8843 161.575 39.2327C162.013 39.452 162.42 39.7229 162.794 40.0455C163.181 40.368 163.516 40.7616 163.8 41.226L169.8 51.0381H163.878C162.781 51.0381 161.994 50.6252 161.517 49.7995L156.833 41.6131C156.627 41.2518 156.382 40.9938 156.098 40.839C155.827 40.6842 155.44 40.6067 154.937 40.6067H153.272ZM153.272 36.0975H155.904C156.794 36.0975 157.549 35.9878 158.169 35.7685C158.801 35.5362 159.317 35.2201 159.717 34.8201C160.117 34.4202 160.407 33.9557 160.588 33.4267C160.768 32.8848 160.859 32.3042 160.859 31.6849C160.859 30.4463 160.452 29.4787 159.639 28.782C158.839 28.0852 157.594 27.7369 155.904 27.7369H153.272V36.0975ZM187.117 51.0381H180.537V22.8405H187.117V51.0381Z" fill="#393939"/>
</svg>
