<svg width="16" height="18" viewBox="0 0 16 18" fill="none" xmlns="http://www.w3.org/2000/svg">
<path d="M0.310936 8.58357C0.310936 8.58357 -0.250213 7.75526 0.578591 7.19461C1.4064 6.63396 1.96705 7.46177 1.96705 7.46177L4.57003 11.3061C4.66142 11.1556 4.76129 11.0072 4.87265 10.8609L1.25989 5.52608C1.25989 5.52608 0.699242 4.69828 1.52755 4.13763C2.35535 3.57698 2.916 4.40478 2.916 4.40478L6.31411 9.42331C6.44222 9.32006 6.57333 9.21633 6.70843 9.11462L2.76901 3.2959C2.76901 3.2959 2.20836 2.4681 3.03666 1.90745C3.86446 1.34679 4.42512 2.1746 4.42512 2.1746L8.36454 7.99232C8.51107 7.90367 8.65602 7.82702 8.8015 7.74588L5.11934 2.30817C5.11934 2.30817 4.55869 1.48037 5.3865 0.919718C6.2143 0.359066 6.77495 1.18687 6.77495 1.18687L10.6683 6.93682L11.2602 7.81131C8.77624 9.49376 8.52201 12.6848 9.92339 14.7546C10.2035 15.1687 10.6176 14.8887 10.6176 14.8887C8.93566 12.4042 9.46997 9.62683 11.9544 7.94488L11.2463 4.28966C11.2463 4.28966 10.9795 3.32608 11.9426 3.05873C12.9061 2.79188 13.1735 3.75546 13.1735 3.75546L14.0013 6.26236C14.3295 7.25631 14.6792 8.24688 15.1442 9.18462C16.4572 11.8324 15.6444 15.1087 13.1294 16.8124C10.3859 18.6699 6.65457 17.9515 4.79664 15.2085L0.310936 8.58357Z" fill="#FFDC5D"/>
</svg>
