<svg width="15" height="16" viewBox="0 0 15 16" fill="none" xmlns="http://www.w3.org/2000/svg">
<path d="M0 3.16016C0 1.5033 1.34315 0.160156 3 0.160156H12C13.6569 0.160156 15 1.5033 15 3.16016V12.0234C15 13.6802 13.6569 15.0234 12 15.0234H3C1.34315 15.0234 0 13.6802 0 12.0234V3.16016Z" fill="white"/>
<path fill-rule="evenodd" clip-rule="evenodd" d="M7.5 10.0687C8.88071 10.0687 10 8.95958 10 7.59146C10 6.22334 8.88071 5.11426 7.5 5.11426C6.11929 5.11426 5 6.22334 5 7.59146C5 8.95958 6.11929 10.0687 7.5 10.0687Z" stroke="#3A3A3A" stroke-width="0.941892" stroke-linecap="round" stroke-linejoin="round"/>
<path d="M9.99988 7.59166V8.21096C9.99988 9.23706 10.8393 10.0689 11.8749 10.0689C12.9104 10.0689 13.7499 9.23706 13.7499 8.21096V7.59166C13.7497 4.71371 11.7487 2.21515 8.92028 1.5611C6.09185 0.907042 3.18143 2.26988 1.89567 4.85047C0.609901 7.43105 1.28766 10.5492 3.53152 12.3765C5.77539 14.2039 8.99394 14.2587 11.2999 12.5089" stroke="#3A3A3A" stroke-width="0.941892" stroke-linecap="round" stroke-linejoin="round"/>
</svg>
