<svg width="16" height="16" viewBox="0 0 16 16" fill="none" xmlns="http://www.w3.org/2000/svg">
<path d="M10.7731 8.07369C10.7731 9.61938 9.53149 10.8724 7.99987 10.8724C6.46825 10.8724 5.22662 9.61938 5.22662 8.07369C5.22662 6.528 6.46825 5.27497 7.99987 5.27497C9.53149 5.27497 10.7731 6.528 10.7731 8.07369ZM10.7731 8.07369L10.7732 8.77338C10.7732 9.93264 11.7044 10.8724 12.8531 10.8724C14.0019 10.8724 14.9331 9.93264 14.9331 8.77338V8.0737C14.9329 4.82222 12.7132 1.99937 9.57559 1.26043C6.43801 0.521487 3.20949 2.06121 1.78319 4.97672C0.356886 7.89224 1.10873 11.4151 3.59784 13.4796C6.08696 15.5441 9.65731 15.606 12.2153 13.6292" stroke="#8B8B8B" stroke-width="0.941892" stroke-linecap="round" stroke-linejoin="round"/>
</svg>
