<svg width="16" height="16" viewBox="0 0 16 16" fill="none" xmlns="http://www.w3.org/2000/svg">
<path d="M0.138184 3.16016C0.138184 1.5033 1.48133 0.160156 3.13818 0.160156H12.1382C13.795 0.160156 15.1382 1.5033 15.1382 3.16016V12.0234C15.1382 13.6802 13.795 15.0234 12.1382 15.0234H3.13818C1.48133 15.0234 0.138184 13.6802 0.138184 12.0234V3.16016Z" fill="white"/>
<path d="M13.5371 7.38226L7.79339 13.0736C6.32811 14.5256 3.95242 14.5256 2.48714 13.0736C1.02186 11.6217 1.02186 9.26769 2.48714 7.81577L8.23089 2.1244C9.20775 1.15645 10.7915 1.15645 11.7684 2.1244C12.7452 3.09234 12.7452 4.66169 11.7684 5.62964L6.01839 11.321C5.52997 11.805 4.73807 11.805 4.24964 11.321C3.76122 10.837 3.76122 10.0524 4.24964 9.56839L9.55589 4.31672" stroke="#3A3A3A" stroke-width="0.941892" stroke-linecap="round" stroke-linejoin="round"/>
</svg>
