<svg width="10" height="12" viewBox="0 0 10 12" fill="none" xmlns="http://www.w3.org/2000/svg">
<path fill-rule="evenodd" clip-rule="evenodd" d="M0.379883 1.33317C0.379883 1.03671 0.620207 0.796387 0.916662 0.796387H5.58333C7.16845 0.796387 8.45344 2.08138 8.45344 3.6665C8.45344 5.25162 7.16845 6.53661 5.58333 6.53661H0.916662C0.620207 6.53661 0.379883 6.29629 0.379883 5.99983V1.33317ZM1.45344 1.86995V5.46305H5.58333C6.57554 5.46305 7.37988 4.65871 7.37988 3.6665C7.37988 2.67429 6.57554 1.86995 5.58333 1.86995H1.45344Z" fill="#8B8B8B"/>
<path fill-rule="evenodd" clip-rule="evenodd" d="M0.379883 6.00016C0.379883 5.7037 0.620207 5.46338 0.916663 5.46338H6.16666C7.75178 5.46338 9.03678 6.74837 9.03678 8.33349C9.03678 9.91861 7.75178 11.2036 6.16666 11.2036H0.916663C0.620207 11.2036 0.379883 10.9633 0.379883 10.6668V6.00016ZM1.45344 6.53694V10.13H6.16666C7.15887 10.13 7.96322 9.3257 7.96322 8.33349C7.96322 7.34128 7.15887 6.53694 6.16666 6.53694H1.45344Z" fill="#8B8B8B"/>
</svg>
