<svg width="16" height="15" viewBox="0 0 16 15" fill="none" xmlns="http://www.w3.org/2000/svg">
<path d="M0 3C0 1.34315 1.34315 0 3 0H12.138C13.7949 0 15.138 1.34315 15.138 3V12C15.138 13.6569 13.7949 15 12.138 15H3C1.34315 15 0 13.6569 0 12V3Z" fill="white"/>
<path d="M6.30713 8.12498C6.85522 8.85104 7.69455 9.30542 8.60726 9.37019C9.51997 9.43496 10.4161 9.10373 11.063 8.46248L12.9552 6.58748C14.1504 5.3613 14.1333 3.41221 12.9168 2.2068C11.7003 1.00138 9.7333 0.984441 8.49584 2.16873L7.41094 3.23748" stroke="#BEBEBE" stroke-width="0.978006" stroke-linecap="round" stroke-linejoin="round"/>
<path d="M8.83078 6.87478C8.28269 6.14873 7.44336 5.69435 6.53065 5.62958C5.61794 5.5648 4.72184 5.89603 4.07492 6.53728L2.18266 8.41228C0.987474 9.63847 1.00457 11.5875 2.22108 12.793C3.43759 13.9984 5.40461 14.0153 6.64207 12.831L7.72066 11.7623" stroke="#BEBEBE" stroke-width="0.978006" stroke-linecap="round" stroke-linejoin="round"/>
</svg>
