<svg width="18" height="18" viewBox="0 0 18 18" fill="none" xmlns="http://www.w3.org/2000/svg">
<path fill-rule="evenodd" clip-rule="evenodd" d="M8.99988 10.4999C9.82831 10.4999 10.4999 9.82837 10.4999 8.99995C10.4999 8.17152 9.82831 7.49995 8.99988 7.49995C8.17145 7.49995 7.49988 8.17152 7.49988 8.99995C7.49988 9.82837 8.17145 10.4999 8.99988 10.4999Z" stroke="#333333" stroke-width="1.22693" stroke-linecap="round" stroke-linejoin="round"/>
<path fill-rule="evenodd" clip-rule="evenodd" d="M8.99988 4.49993C9.82831 4.49993 10.4999 3.82836 10.4999 2.99993C10.4999 2.1715 9.82831 1.49993 8.99988 1.49993C8.17145 1.49993 7.49988 2.1715 7.49988 2.99993C7.49988 3.82836 8.17145 4.49993 8.99988 4.49993Z" stroke="#333333" stroke-width="1.22693" stroke-linecap="round" stroke-linejoin="round"/>
<path fill-rule="evenodd" clip-rule="evenodd" d="M8.99988 16.5C9.82831 16.5 10.4999 15.8284 10.4999 15C10.4999 14.1715 9.82831 13.5 8.99988 13.5C8.17145 13.5 7.49988 14.1715 7.49988 15C7.49988 15.8284 8.17145 16.5 8.99988 16.5Z" stroke="#333333" stroke-width="1.22693" stroke-linecap="round" stroke-linejoin="round"/>
</svg>
