<svg width="119" height="41" viewBox="0 0 119 41" fill="none" xmlns="http://www.w3.org/2000/svg">
<path fill-rule="evenodd" clip-rule="evenodd" d="M6 0C2.68629 0 0 2.68629 0 6V29C0 32.3137 2.68629 35 6 35H53.5979L60.0777 41L66.5574 35H113C116.314 35 119 32.3137 119 29V6C119 2.68629 116.314 0 113 0H6Z" fill="#3A3A3A"/>
<path d="M13.55 18.724L12.494 15.838C12.442 15.71 12.388 15.558 12.332 15.382C12.276 15.206 12.22 15.016 12.164 14.812C12.112 15.016 12.058 15.208 12.002 15.388C11.946 15.564 11.892 15.718 11.84 15.85L10.79 18.724H13.55ZM16.4 22H15.152C15.012 22 14.898 21.966 14.81 21.898C14.722 21.826 14.656 21.738 14.612 21.634L13.964 19.864H10.37L9.722 21.634C9.69 21.726 9.628 21.81 9.536 21.886C9.444 21.962 9.33 22 9.194 22H7.934L11.348 13.324H12.992L16.4 22ZM20.7991 17.416C20.6311 17.212 20.4471 17.068 20.2471 16.984C20.0511 16.9 19.8391 16.858 19.6111 16.858C19.3871 16.858 19.1851 16.9 19.0051 16.984C18.8251 17.068 18.6711 17.196 18.5431 17.368C18.4151 17.536 18.3171 17.752 18.2491 18.016C18.1811 18.276 18.1471 18.584 18.1471 18.94C18.1471 19.3 18.1751 19.606 18.2311 19.858C18.2911 20.106 18.3751 20.31 18.4831 20.47C18.5911 20.626 18.7231 20.74 18.8791 20.812C19.0351 20.88 19.2091 20.914 19.4011 20.914C19.7091 20.914 19.9711 20.85 20.1871 20.722C20.4031 20.594 20.6071 20.412 20.7991 20.176V17.416ZM22.2811 13.084V22H21.3751C21.1791 22 21.0551 21.91 21.0031 21.73L20.8771 21.136C20.6291 21.42 20.3431 21.65 20.0191 21.826C19.6991 22.002 19.3251 22.09 18.8971 22.09C18.5611 22.09 18.2531 22.02 17.9731 21.88C17.6931 21.74 17.4511 21.538 17.2471 21.274C17.0471 21.006 16.8911 20.676 16.7791 20.284C16.6711 19.892 16.6171 19.444 16.6171 18.94C16.6171 18.484 16.6791 18.06 16.8031 17.668C16.9271 17.276 17.1051 16.936 17.3371 16.648C17.5691 16.36 17.8471 16.136 18.1711 15.976C18.4951 15.812 18.8591 15.73 19.2631 15.73C19.6071 15.73 19.9011 15.784 20.1451 15.892C20.3891 16 20.6071 16.146 20.7991 16.33V13.084H22.2811ZM27.6077 17.416C27.4397 17.212 27.2557 17.068 27.0557 16.984C26.8597 16.9 26.6477 16.858 26.4197 16.858C26.1957 16.858 25.9937 16.9 25.8137 16.984C25.6337 17.068 25.4797 17.196 25.3517 17.368C25.2237 17.536 25.1257 17.752 25.0577 18.016C24.9897 18.276 24.9557 18.584 24.9557 18.94C24.9557 19.3 24.9837 19.606 25.0397 19.858C25.0997 20.106 25.1837 20.31 25.2917 20.47C25.3997 20.626 25.5317 20.74 25.6877 20.812C25.8437 20.88 26.0177 20.914 26.2097 20.914C26.5177 20.914 26.7797 20.85 26.9957 20.722C27.2117 20.594 27.4157 20.412 27.6077 20.176V17.416ZM29.0897 13.084V22H28.1837C27.9877 22 27.8637 21.91 27.8117 21.73L27.6857 21.136C27.4377 21.42 27.1517 21.65 26.8277 21.826C26.5077 22.002 26.1337 22.09 25.7057 22.09C25.3697 22.09 25.0617 22.02 24.7817 21.88C24.5017 21.74 24.2597 21.538 24.0557 21.274C23.8557 21.006 23.6997 20.676 23.5877 20.284C23.4797 19.892 23.4257 19.444 23.4257 18.94C23.4257 18.484 23.4877 18.06 23.6117 17.668C23.7357 17.276 23.9137 16.936 24.1457 16.648C24.3777 16.36 24.6557 16.136 24.9797 15.976C25.3037 15.812 25.6677 15.73 26.0717 15.73C26.4157 15.73 26.7097 15.784 26.9537 15.892C27.1977 16 27.4157 16.146 27.6077 16.33V13.084H29.0897ZM35.5223 22.096C34.9863 22.096 34.5743 21.946 34.2863 21.646C34.0023 21.342 33.8603 20.924 33.8603 20.392V16.954H33.2303C33.1503 16.954 33.0823 16.928 33.0263 16.876C32.9703 16.824 32.9423 16.746 32.9423 16.642V16.054L33.9323 15.892L34.2443 14.212C34.2643 14.132 34.3023 14.07 34.3583 14.026C34.4143 13.982 34.4863 13.96 34.5743 13.96H35.3423V15.898H36.9863V16.954H35.3423V20.29C35.3423 20.482 35.3883 20.632 35.4803 20.74C35.5763 20.848 35.7063 20.902 35.8703 20.902C35.9623 20.902 36.0383 20.892 36.0983 20.872C36.1623 20.848 36.2163 20.824 36.2603 20.8C36.3083 20.776 36.3503 20.754 36.3863 20.734C36.4223 20.71 36.4583 20.698 36.4943 20.698C36.5383 20.698 36.5743 20.71 36.6023 20.734C36.6303 20.754 36.6603 20.786 36.6923 20.83L37.1363 21.55C36.9203 21.73 36.6723 21.866 36.3923 21.958C36.1123 22.05 35.8223 22.096 35.5223 22.096ZM40.6123 15.748C41.0683 15.748 41.4823 15.822 41.8543 15.97C42.2303 16.118 42.5503 16.328 42.8143 16.6C43.0822 16.872 43.2882 17.204 43.4323 17.596C43.5763 17.988 43.6483 18.426 43.6483 18.91C43.6483 19.398 43.5763 19.838 43.4323 20.23C43.2882 20.622 43.0822 20.956 42.8143 21.232C42.5503 21.508 42.2303 21.72 41.8543 21.868C41.4823 22.016 41.0683 22.09 40.6123 22.09C40.1523 22.09 39.7343 22.016 39.3583 21.868C38.9823 21.72 38.6603 21.508 38.3923 21.232C38.1283 20.956 37.9223 20.622 37.7743 20.23C37.6303 19.838 37.5583 19.398 37.5583 18.91C37.5583 18.426 37.6303 17.988 37.7743 17.596C37.9223 17.204 38.1283 16.872 38.3923 16.6C38.6603 16.328 38.9823 16.118 39.3583 15.97C39.7343 15.822 40.1523 15.748 40.6123 15.748ZM40.6123 20.95C41.1243 20.95 41.5023 20.778 41.7463 20.434C41.9943 20.09 42.1183 19.586 42.1183 18.922C42.1183 18.258 41.9943 17.752 41.7463 17.404C41.5023 17.056 41.1243 16.882 40.6123 16.882C40.0923 16.882 39.7063 17.058 39.4543 17.41C39.2063 17.758 39.0823 18.262 39.0823 18.922C39.0823 19.582 39.2063 20.086 39.4543 20.434C39.7063 20.778 40.0923 20.95 40.6123 20.95ZM51.4528 17.044C51.4128 17.108 51.3708 17.154 51.3268 17.182C51.2828 17.206 51.2268 17.218 51.1588 17.218C51.0868 17.218 51.0088 17.198 50.9248 17.158C50.8448 17.118 50.7508 17.074 50.6428 17.026C50.5348 16.974 50.4108 16.928 50.2708 16.888C50.1348 16.848 49.9728 16.828 49.7848 16.828C49.4928 16.828 49.2628 16.89 49.0948 17.014C48.9308 17.138 48.8488 17.3 48.8488 17.5C48.8488 17.632 48.8908 17.744 48.9748 17.836C49.0628 17.924 49.1768 18.002 49.3168 18.07C49.4608 18.138 49.6228 18.2 49.8028 18.256C49.9828 18.308 50.1648 18.366 50.3488 18.43C50.5368 18.494 50.7208 18.568 50.9008 18.652C51.0808 18.732 51.2408 18.836 51.3808 18.964C51.5248 19.088 51.6388 19.238 51.7228 19.414C51.8108 19.59 51.8548 19.802 51.8548 20.05C51.8548 20.346 51.8008 20.62 51.6928 20.872C51.5888 21.12 51.4328 21.336 51.2248 21.52C51.0168 21.7 50.7588 21.842 50.4508 21.946C50.1468 22.046 49.7948 22.096 49.3948 22.096C49.1828 22.096 48.9748 22.076 48.7708 22.036C48.5708 22 48.3768 21.948 48.1888 21.88C48.0048 21.812 47.8328 21.732 47.6728 21.64C47.5168 21.548 47.3788 21.448 47.2588 21.34L47.6008 20.776C47.6448 20.708 47.6968 20.656 47.7568 20.62C47.8168 20.584 47.8928 20.566 47.9848 20.566C48.0768 20.566 48.1628 20.592 48.2428 20.644C48.3268 20.696 48.4228 20.752 48.5308 20.812C48.6388 20.872 48.7648 20.928 48.9088 20.98C49.0568 21.032 49.2428 21.058 49.4668 21.058C49.6428 21.058 49.7928 21.038 49.9168 20.998C50.0448 20.954 50.1488 20.898 50.2288 20.83C50.3128 20.762 50.3728 20.684 50.4088 20.596C50.4488 20.504 50.4688 20.41 50.4688 20.314C50.4688 20.17 50.4248 20.052 50.3368 19.96C50.2528 19.868 50.1388 19.788 49.9948 19.72C49.8548 19.652 49.6928 19.592 49.5088 19.54C49.3288 19.484 49.1428 19.424 48.9508 19.36C48.7628 19.296 48.5768 19.222 48.3928 19.138C48.2128 19.05 48.0508 18.94 47.9068 18.808C47.7668 18.676 47.6528 18.514 47.5648 18.322C47.4808 18.13 47.4388 17.898 47.4388 17.626C47.4388 17.374 47.4888 17.134 47.5888 16.906C47.6888 16.678 47.8348 16.48 48.0268 16.312C48.2228 16.14 48.4648 16.004 48.7528 15.904C49.0448 15.8 49.3808 15.748 49.7608 15.748C50.1848 15.748 50.5708 15.818 50.9188 15.958C51.2668 16.098 51.5568 16.282 51.7888 16.51L51.4528 17.044ZM56.2223 19.372C55.7943 19.392 55.4343 19.43 55.1423 19.486C54.8503 19.538 54.6163 19.606 54.4403 19.69C54.2643 19.774 54.1383 19.872 54.0623 19.984C53.9863 20.096 53.9483 20.218 53.9483 20.35C53.9483 20.61 54.0243 20.796 54.1763 20.908C54.3323 21.02 54.5343 21.076 54.7823 21.076C55.0863 21.076 55.3483 21.022 55.5683 20.914C55.7923 20.802 56.0103 20.634 56.2223 20.41V19.372ZM52.8263 16.702C53.5343 16.054 54.3863 15.73 55.3823 15.73C55.7423 15.73 56.0643 15.79 56.3483 15.91C56.6323 16.026 56.8723 16.19 57.0683 16.402C57.2643 16.61 57.4123 16.86 57.5123 17.152C57.6163 17.444 57.6683 17.764 57.6683 18.112V22H56.9963C56.8563 22 56.7483 21.98 56.6723 21.94C56.5963 21.896 56.5363 21.81 56.4923 21.682L56.3603 21.238C56.2043 21.378 56.0523 21.502 55.9043 21.61C55.7563 21.714 55.6023 21.802 55.4423 21.874C55.2823 21.946 55.1103 22 54.9263 22.036C54.7463 22.076 54.5463 22.096 54.3263 22.096C54.0663 22.096 53.8263 22.062 53.6063 21.994C53.3863 21.922 53.1963 21.816 53.0363 21.676C52.8763 21.536 52.7523 21.362 52.6643 21.154C52.5763 20.946 52.5323 20.704 52.5323 20.428C52.5323 20.272 52.5583 20.118 52.6103 19.966C52.6623 19.81 52.7463 19.662 52.8623 19.522C52.9823 19.382 53.1363 19.25 53.3243 19.126C53.5123 19.002 53.7423 18.894 54.0143 18.802C54.2903 18.71 54.6103 18.636 54.9743 18.58C55.3383 18.52 55.7543 18.484 56.2223 18.472V18.112C56.2223 17.7 56.1343 17.396 55.9583 17.2C55.7823 17 55.5283 16.9 55.1963 16.9C54.9563 16.9 54.7563 16.928 54.5963 16.984C54.4403 17.04 54.3023 17.104 54.1823 17.176C54.0623 17.244 53.9523 17.306 53.8523 17.362C53.7563 17.418 53.6483 17.446 53.5283 17.446C53.4243 17.446 53.3363 17.42 53.2643 17.368C53.1923 17.312 53.1343 17.248 53.0903 17.176L52.8263 16.702ZM64.4734 15.844L62.0314 22H60.6874L58.2454 15.844H59.4694C59.5814 15.844 59.6734 15.87 59.7454 15.922C59.8214 15.974 59.8714 16.04 59.8954 16.12L61.0834 19.408C61.1474 19.6 61.2034 19.788 61.2514 19.972C61.2994 20.156 61.3414 20.34 61.3774 20.524C61.4174 20.34 61.4614 20.156 61.5094 19.972C61.5574 19.788 61.6154 19.6 61.6834 19.408L62.8954 16.12C62.9234 16.04 62.9734 15.974 63.0454 15.922C63.1174 15.87 63.2034 15.844 63.3034 15.844H64.4734ZM69.0418 18.214C69.0418 18.022 69.0138 17.842 68.9578 17.674C68.9058 17.502 68.8258 17.352 68.7178 17.224C68.6098 17.096 68.4718 16.996 68.3038 16.924C68.1398 16.848 67.9478 16.81 67.7278 16.81C67.2998 16.81 66.9618 16.932 66.7138 17.176C66.4698 17.42 66.3138 17.766 66.2458 18.214H69.0418ZM66.2158 19.108C66.2398 19.424 66.2958 19.698 66.3838 19.93C66.4718 20.158 66.5878 20.348 66.7318 20.5C66.8758 20.648 67.0458 20.76 67.2418 20.836C67.4418 20.908 67.6618 20.944 67.9018 20.944C68.1418 20.944 68.3478 20.916 68.5198 20.86C68.6958 20.804 68.8478 20.742 68.9758 20.674C69.1078 20.606 69.2218 20.544 69.3178 20.488C69.4178 20.432 69.5138 20.404 69.6058 20.404C69.7298 20.404 69.8218 20.45 69.8818 20.542L70.3078 21.082C70.1438 21.274 69.9598 21.436 69.7558 21.568C69.5518 21.696 69.3378 21.8 69.1138 21.88C68.8938 21.956 68.6678 22.01 68.4358 22.042C68.2078 22.074 67.9858 22.09 67.7698 22.09C67.3418 22.09 66.9438 22.02 66.5758 21.88C66.2078 21.736 65.8878 21.526 65.6158 21.25C65.3438 20.97 65.1298 20.626 64.9738 20.218C64.8178 19.806 64.7397 19.33 64.7397 18.79C64.7397 18.37 64.8078 17.976 64.9438 17.608C65.0798 17.236 65.2738 16.914 65.5258 16.642C65.7818 16.366 66.0918 16.148 66.4558 15.988C66.8238 15.828 67.2378 15.748 67.6978 15.748C68.0858 15.748 68.4438 15.81 68.7718 15.934C69.0998 16.058 69.3818 16.24 69.6178 16.48C69.8538 16.716 70.0378 17.008 70.1698 17.356C70.3058 17.7 70.3737 18.094 70.3737 18.538C70.3737 18.762 70.3498 18.914 70.3018 18.994C70.2538 19.07 70.1618 19.108 70.0258 19.108H66.2158ZM75.3499 17.416C75.1819 17.212 74.9979 17.068 74.7979 16.984C74.6019 16.9 74.3899 16.858 74.1619 16.858C73.9379 16.858 73.7359 16.9 73.5559 16.984C73.3759 17.068 73.2219 17.196 73.0939 17.368C72.9659 17.536 72.8679 17.752 72.7999 18.016C72.7319 18.276 72.6979 18.584 72.6979 18.94C72.6979 19.3 72.7259 19.606 72.7819 19.858C72.8419 20.106 72.9259 20.31 73.0339 20.47C73.1419 20.626 73.2739 20.74 73.4299 20.812C73.5859 20.88 73.7599 20.914 73.9519 20.914C74.2599 20.914 74.5219 20.85 74.7379 20.722C74.9539 20.594 75.1579 20.412 75.3499 20.176V17.416ZM76.8319 13.084V22H75.9259C75.7299 22 75.6059 21.91 75.5539 21.73L75.4279 21.136C75.1799 21.42 74.8939 21.65 74.5699 21.826C74.2499 22.002 73.8759 22.09 73.4479 22.09C73.1119 22.09 72.8039 22.02 72.5239 21.88C72.2439 21.74 72.0019 21.538 71.7979 21.274C71.5979 21.006 71.4419 20.676 71.3299 20.284C71.2219 19.892 71.1679 19.444 71.1679 18.94C71.1679 18.484 71.2299 18.06 71.3539 17.668C71.4779 17.276 71.6559 16.936 71.8879 16.648C72.1199 16.36 72.3979 16.136 72.7219 15.976C73.0459 15.812 73.4099 15.73 73.8139 15.73C74.1579 15.73 74.4519 15.784 74.6959 15.892C74.9399 16 75.1579 16.146 75.3499 16.33V13.084H76.8319ZM82.7485 15.844V22H81.2605V15.844H82.7485ZM82.9525 14.05C82.9525 14.178 82.9265 14.298 82.8745 14.41C82.8225 14.522 82.7525 14.62 82.6645 14.704C82.5805 14.788 82.4805 14.856 82.3645 14.908C82.2485 14.956 82.1245 14.98 81.9925 14.98C81.8645 14.98 81.7425 14.956 81.6265 14.908C81.5145 14.856 81.4165 14.788 81.3325 14.704C81.2485 14.62 81.1805 14.522 81.1285 14.41C81.0805 14.298 81.0565 14.178 81.0565 14.05C81.0565 13.918 81.0805 13.794 81.1285 13.678C81.1805 13.562 81.2485 13.462 81.3325 13.378C81.4165 13.294 81.5145 13.228 81.6265 13.18C81.7425 13.128 81.8645 13.102 81.9925 13.102C82.1245 13.102 82.2485 13.128 82.3645 13.18C82.4805 13.228 82.5805 13.294 82.6645 13.378C82.7525 13.462 82.8225 13.562 82.8745 13.678C82.9265 13.794 82.9525 13.918 82.9525 14.05ZM86.3113 22.096C85.7753 22.096 85.3633 21.946 85.0753 21.646C84.7913 21.342 84.6493 20.924 84.6493 20.392V16.954H84.0193C83.9393 16.954 83.8713 16.928 83.8153 16.876C83.7593 16.824 83.7313 16.746 83.7313 16.642V16.054L84.7213 15.892L85.0333 14.212C85.0533 14.132 85.0913 14.07 85.1473 14.026C85.2033 13.982 85.2753 13.96 85.3633 13.96H86.1313V15.898H87.7753V16.954H86.1313V20.29C86.1313 20.482 86.1773 20.632 86.2693 20.74C86.3653 20.848 86.4953 20.902 86.6593 20.902C86.7513 20.902 86.8273 20.892 86.8873 20.872C86.9513 20.848 87.0053 20.824 87.0493 20.8C87.0973 20.776 87.1393 20.754 87.1753 20.734C87.2113 20.71 87.2473 20.698 87.2833 20.698C87.3273 20.698 87.3633 20.71 87.3913 20.734C87.4193 20.754 87.4493 20.786 87.4813 20.83L87.9253 21.55C87.7093 21.73 87.4613 21.866 87.1813 21.958C86.9013 22.05 86.6113 22.096 86.3113 22.096ZM92.6433 18.214C92.6433 18.022 92.6153 17.842 92.5593 17.674C92.5073 17.502 92.4273 17.352 92.3193 17.224C92.2113 17.096 92.0733 16.996 91.9053 16.924C91.7413 16.848 91.5493 16.81 91.3293 16.81C90.9013 16.81 90.5633 16.932 90.3153 17.176C90.0713 17.42 89.9153 17.766 89.8473 18.214H92.6433ZM89.8173 19.108C89.8413 19.424 89.8973 19.698 89.9853 19.93C90.0733 20.158 90.1893 20.348 90.3333 20.5C90.4773 20.648 90.6473 20.76 90.8433 20.836C91.0433 20.908 91.2633 20.944 91.5033 20.944C91.7433 20.944 91.9493 20.916 92.1213 20.86C92.2973 20.804 92.4493 20.742 92.5773 20.674C92.7093 20.606 92.8233 20.544 92.9193 20.488C93.0193 20.432 93.1153 20.404 93.2073 20.404C93.3313 20.404 93.4233 20.45 93.4833 20.542L93.9093 21.082C93.7453 21.274 93.5613 21.436 93.3573 21.568C93.1533 21.696 92.9393 21.8 92.7153 21.88C92.4953 21.956 92.2693 22.01 92.0373 22.042C91.8093 22.074 91.5873 22.09 91.3713 22.09C90.9433 22.09 90.5453 22.02 90.1773 21.88C89.8093 21.736 89.4893 21.526 89.2173 21.25C88.9453 20.97 88.7313 20.626 88.5753 20.218C88.4193 19.806 88.3413 19.33 88.3413 18.79C88.3413 18.37 88.4093 17.976 88.5453 17.608C88.6813 17.236 88.8753 16.914 89.1273 16.642C89.3833 16.366 89.6933 16.148 90.0573 15.988C90.4253 15.828 90.8393 15.748 91.2993 15.748C91.6873 15.748 92.0453 15.81 92.3733 15.934C92.7013 16.058 92.9833 16.24 93.2193 16.48C93.4553 16.716 93.6393 17.008 93.7713 17.356C93.9073 17.7 93.9753 18.094 93.9753 18.538C93.9753 18.762 93.9513 18.914 93.9033 18.994C93.8553 19.07 93.7633 19.108 93.6273 19.108H89.8173ZM95.0875 22V15.844H95.9935C96.1855 15.844 96.3115 15.934 96.3715 16.114L96.4675 16.57C96.5755 16.45 96.6875 16.34 96.8035 16.24C96.9235 16.14 97.0495 16.054 97.1815 15.982C97.3175 15.91 97.4615 15.854 97.6135 15.814C97.7695 15.77 97.9395 15.748 98.1235 15.748C98.5115 15.748 98.8295 15.854 99.0775 16.066C99.3295 16.274 99.5175 16.552 99.6415 16.9C99.7375 16.696 99.8575 16.522 100.001 16.378C100.145 16.23 100.303 16.11 100.475 16.018C100.647 15.926 100.829 15.858 101.021 15.814C101.217 15.77 101.413 15.748 101.609 15.748C101.949 15.748 102.251 15.8 102.515 15.904C102.779 16.008 103.001 16.16 103.181 16.36C103.361 16.56 103.497 16.804 103.589 17.092C103.685 17.38 103.733 17.71 103.733 18.082V22H102.251V18.082C102.251 17.69 102.165 17.396 101.993 17.2C101.821 17 101.569 16.9 101.237 16.9C101.085 16.9 100.943 16.926 100.811 16.978C100.683 17.03 100.569 17.106 100.469 17.206C100.373 17.302 100.297 17.424 100.241 17.572C100.185 17.72 100.157 17.89 100.157 18.082V22H98.6695V18.082C98.6695 17.67 98.5855 17.37 98.4175 17.182C98.2535 16.994 98.0115 16.9 97.6915 16.9C97.4755 16.9 97.2735 16.954 97.0855 17.062C96.9015 17.166 96.7295 17.31 96.5695 17.494V22H95.0875ZM108.898 17.044C108.858 17.108 108.816 17.154 108.772 17.182C108.728 17.206 108.672 17.218 108.604 17.218C108.532 17.218 108.454 17.198 108.37 17.158C108.29 17.118 108.196 17.074 108.088 17.026C107.98 16.974 107.856 16.928 107.716 16.888C107.58 16.848 107.418 16.828 107.23 16.828C106.938 16.828 106.708 16.89 106.54 17.014C106.376 17.138 106.294 17.3 106.294 17.5C106.294 17.632 106.336 17.744 106.42 17.836C106.508 17.924 106.622 18.002 106.762 18.07C106.906 18.138 107.068 18.2 107.248 18.256C107.428 18.308 107.61 18.366 107.794 18.43C107.982 18.494 108.166 18.568 108.346 18.652C108.526 18.732 108.686 18.836 108.826 18.964C108.97 19.088 109.084 19.238 109.168 19.414C109.256 19.59 109.3 19.802 109.3 20.05C109.3 20.346 109.246 20.62 109.138 20.872C109.034 21.12 108.878 21.336 108.67 21.52C108.462 21.7 108.204 21.842 107.896 21.946C107.592 22.046 107.24 22.096 106.84 22.096C106.628 22.096 106.42 22.076 106.216 22.036C106.016 22 105.822 21.948 105.634 21.88C105.45 21.812 105.278 21.732 105.118 21.64C104.962 21.548 104.824 21.448 104.704 21.34L105.046 20.776C105.09 20.708 105.142 20.656 105.202 20.62C105.262 20.584 105.338 20.566 105.43 20.566C105.522 20.566 105.608 20.592 105.688 20.644C105.772 20.696 105.868 20.752 105.976 20.812C106.084 20.872 106.21 20.928 106.354 20.98C106.502 21.032 106.688 21.058 106.912 21.058C107.088 21.058 107.238 21.038 107.362 20.998C107.49 20.954 107.594 20.898 107.674 20.83C107.758 20.762 107.818 20.684 107.854 20.596C107.894 20.504 107.914 20.41 107.914 20.314C107.914 20.17 107.87 20.052 107.782 19.96C107.698 19.868 107.584 19.788 107.44 19.72C107.3 19.652 107.138 19.592 106.954 19.54C106.774 19.484 106.588 19.424 106.396 19.36C106.208 19.296 106.022 19.222 105.838 19.138C105.658 19.05 105.496 18.94 105.352 18.808C105.212 18.676 105.098 18.514 105.01 18.322C104.926 18.13 104.884 17.898 104.884 17.626C104.884 17.374 104.934 17.134 105.034 16.906C105.134 16.678 105.28 16.48 105.472 16.312C105.668 16.14 105.91 16.004 106.198 15.904C106.49 15.8 106.826 15.748 107.206 15.748C107.63 15.748 108.016 15.818 108.364 15.958C108.712 16.098 109.002 16.282 109.234 16.51L108.898 17.044Z" fill="white"/>
</svg>
