<svg width="119" height="41" viewBox="0 0 119 41" fill="none" xmlns="http://www.w3.org/2000/svg">
<path fill-rule="evenodd" clip-rule="evenodd" d="M6 0C2.68629 0 0 2.68629 0 6V29C0 32.3137 2.68629 35 6 35H53.5979L60.0777 41L66.5574 35H113C116.314 35 119 32.3137 119 29V6C119 2.68629 116.314 0 113 0H6Z" fill="#3A3A3A"/>
<path d="M28.502 20H27.254C27.114 20 26.998 19.966 26.906 19.898C26.818 19.826 26.754 19.738 26.714 19.634L26.066 17.864H22.472L21.824 19.634C21.792 19.726 21.728 19.81 21.632 19.886C21.54 19.962 21.426 20 21.29 20H20.036L23.444 11.324H25.094L28.502 20ZM22.886 16.724H25.652L24.596 13.838C24.548 13.71 24.494 13.56 24.434 13.388C24.378 13.212 24.322 13.022 24.266 12.818C24.21 13.022 24.154 13.212 24.098 13.388C24.046 13.564 23.994 13.718 23.942 13.85L22.886 16.724ZM33.6435 20C33.4515 20 33.3255 19.91 33.2655 19.73L33.1455 19.136C33.0175 19.28 32.8835 19.41 32.7435 19.526C32.6035 19.642 32.4515 19.742 32.2875 19.826C32.1275 19.91 31.9535 19.974 31.7655 20.018C31.5815 20.066 31.3815 20.09 31.1655 20.09C30.8295 20.09 30.5215 20.02 30.2415 19.88C29.9615 19.74 29.7195 19.538 29.5155 19.274C29.3155 19.006 29.1595 18.676 29.0475 18.284C28.9395 17.892 28.8855 17.444 28.8855 16.94C28.8855 16.484 28.9475 16.06 29.0715 15.668C29.1955 15.276 29.3735 14.936 29.6055 14.648C29.8375 14.36 30.1155 14.136 30.4395 13.976C30.7635 13.812 31.1275 13.73 31.5315 13.73C31.8755 13.73 32.1695 13.786 32.4135 13.898C32.6575 14.006 32.8755 14.152 33.0675 14.336V11.084H34.5495V20H33.6435ZM31.6695 18.914C31.9775 18.914 32.2395 18.85 32.4555 18.722C32.6715 18.594 32.8755 18.412 33.0675 18.176V15.416C32.8995 15.212 32.7155 15.068 32.5155 14.984C32.3195 14.9 32.1075 14.858 31.8795 14.858C31.6555 14.858 31.4515 14.9 31.2675 14.984C31.0875 15.068 30.9335 15.196 30.8055 15.368C30.6815 15.536 30.5855 15.752 30.5175 16.016C30.4495 16.276 30.4155 16.584 30.4155 16.94C30.4155 17.3 30.4435 17.606 30.4995 17.858C30.5595 18.106 30.6435 18.31 30.7515 18.47C30.8595 18.626 30.9915 18.74 31.1475 18.812C31.3035 18.88 31.4775 18.914 31.6695 18.914ZM40.4873 20C40.2953 20 40.1693 19.91 40.1093 19.73L39.9893 19.136C39.8613 19.28 39.7273 19.41 39.5873 19.526C39.4473 19.642 39.2953 19.742 39.1313 19.826C38.9713 19.91 38.7973 19.974 38.6093 20.018C38.4253 20.066 38.2253 20.09 38.0093 20.09C37.6733 20.09 37.3653 20.02 37.0853 19.88C36.8053 19.74 36.5633 19.538 36.3593 19.274C36.1593 19.006 36.0033 18.676 35.8913 18.284C35.7833 17.892 35.7293 17.444 35.7293 16.94C35.7293 16.484 35.7913 16.06 35.9153 15.668C36.0393 15.276 36.2173 14.936 36.4493 14.648C36.6813 14.36 36.9593 14.136 37.2833 13.976C37.6073 13.812 37.9713 13.73 38.3753 13.73C38.7193 13.73 39.0133 13.786 39.2573 13.898C39.5013 14.006 39.7193 14.152 39.9113 14.336V11.084H41.3933V20H40.4873ZM38.5133 18.914C38.8213 18.914 39.0833 18.85 39.2993 18.722C39.5153 18.594 39.7193 18.412 39.9113 18.176V15.416C39.7433 15.212 39.5593 15.068 39.3593 14.984C39.1633 14.9 38.9513 14.858 38.7233 14.858C38.4993 14.858 38.2953 14.9 38.1113 14.984C37.9313 15.068 37.7773 15.196 37.6493 15.368C37.5253 15.536 37.4293 15.752 37.3613 16.016C37.2933 16.276 37.2593 16.584 37.2593 16.94C37.2593 17.3 37.2873 17.606 37.3433 17.858C37.4033 18.106 37.4873 18.31 37.5953 18.47C37.7033 18.626 37.8353 18.74 37.9913 18.812C38.1473 18.88 38.3213 18.914 38.5133 18.914ZM50.1433 20H49.4773C49.3373 20 49.2273 19.98 49.1473 19.94C49.0673 19.896 49.0073 19.81 48.9673 19.682L48.8353 19.244C48.6793 19.384 48.5253 19.508 48.3733 19.616C48.2253 19.72 48.0713 19.808 47.9113 19.88C47.7513 19.952 47.5813 20.006 47.4013 20.042C47.2213 20.078 47.0213 20.096 46.8013 20.096C46.5413 20.096 46.3013 20.062 46.0813 19.994C45.8613 19.922 45.6713 19.816 45.5113 19.676C45.3553 19.536 45.2333 19.362 45.1453 19.154C45.0573 18.946 45.0133 18.704 45.0133 18.428C45.0133 18.196 45.0733 17.968 45.1933 17.744C45.3173 17.516 45.5213 17.312 45.8053 17.132C46.0893 16.948 46.4673 16.796 46.9393 16.676C47.4113 16.556 47.9973 16.488 48.6973 16.472V16.112C48.6973 15.7 48.6093 15.396 48.4333 15.2C48.2613 15 48.0093 14.9 47.6773 14.9C47.4373 14.9 47.2373 14.928 47.0773 14.984C46.9173 15.04 46.7773 15.104 46.6573 15.176C46.5413 15.244 46.4333 15.306 46.3333 15.362C46.2333 15.418 46.1233 15.446 46.0033 15.446C45.9033 15.446 45.8173 15.42 45.7453 15.368C45.6733 15.316 45.6153 15.252 45.5713 15.176L45.3013 14.702C46.0093 14.054 46.8633 13.73 47.8633 13.73C48.2233 13.73 48.5433 13.79 48.8233 13.91C49.1073 14.026 49.3473 14.19 49.5433 14.402C49.7393 14.61 49.8873 14.86 49.9873 15.152C50.0913 15.444 50.1433 15.764 50.1433 16.112V20ZM47.2633 19.076C47.4153 19.076 47.5553 19.062 47.6833 19.034C47.8113 19.006 47.9313 18.964 48.0433 18.908C48.1593 18.852 48.2693 18.784 48.3733 18.704C48.4813 18.62 48.5893 18.522 48.6973 18.41V17.372C48.2653 17.392 47.9033 17.43 47.6113 17.486C47.3233 17.538 47.0913 17.606 46.9153 17.69C46.7393 17.774 46.6133 17.872 46.5373 17.984C46.4653 18.096 46.4293 18.218 46.4293 18.35C46.4293 18.61 46.5053 18.796 46.6573 18.908C46.8133 19.02 47.0153 19.076 47.2633 19.076ZM53.9209 20V13.844H54.7909C54.9429 13.844 55.0489 13.872 55.1089 13.928C55.1689 13.984 55.2089 14.08 55.2289 14.216L55.3189 14.96C55.5389 14.58 55.7969 14.28 56.0929 14.06C56.3889 13.84 56.7209 13.73 57.0889 13.73C57.3929 13.73 57.6449 13.8 57.8449 13.94L57.6529 15.05C57.6409 15.122 57.6149 15.174 57.5749 15.206C57.5349 15.234 57.4809 15.248 57.4129 15.248C57.3529 15.248 57.2709 15.234 57.1669 15.206C57.0629 15.178 56.9249 15.164 56.7529 15.164C56.4449 15.164 56.1809 15.25 55.9609 15.422C55.7409 15.59 55.5549 15.838 55.4029 16.166V20H53.9209ZM61.3633 13.748C61.7513 13.748 62.1073 13.81 62.4313 13.934C62.7593 14.058 63.0413 14.24 63.2773 14.48C63.5133 14.716 63.6973 15.008 63.8293 15.356C63.9613 15.7 64.0273 16.094 64.0273 16.538C64.0273 16.65 64.0213 16.744 64.0093 16.82C64.0013 16.892 63.9833 16.95 63.9553 16.994C63.9313 17.034 63.8973 17.064 63.8533 17.084C63.8093 17.1 63.7533 17.108 63.6853 17.108H59.8813C59.9253 17.74 60.0953 18.204 60.3913 18.5C60.6873 18.796 61.0793 18.944 61.5673 18.944C61.8073 18.944 62.0133 18.916 62.1853 18.86C62.3613 18.804 62.5133 18.742 62.6413 18.674C62.7733 18.606 62.8873 18.544 62.9833 18.488C63.0833 18.432 63.1793 18.404 63.2713 18.404C63.3313 18.404 63.3833 18.416 63.4273 18.44C63.4713 18.464 63.5093 18.498 63.5413 18.542L63.9733 19.082C63.8093 19.274 63.6253 19.436 63.4213 19.568C63.2173 19.696 63.0033 19.8 62.7793 19.88C62.5593 19.956 62.3333 20.01 62.1013 20.042C61.8733 20.074 61.6513 20.09 61.4353 20.09C61.0073 20.09 60.6093 20.02 60.2413 19.88C59.8733 19.736 59.5533 19.526 59.2813 19.25C59.0093 18.97 58.7953 18.626 58.6393 18.218C58.4833 17.806 58.4053 17.33 58.4053 16.79C58.4053 16.37 58.4733 15.976 58.6093 15.608C58.7453 15.236 58.9393 14.914 59.1913 14.642C59.4473 14.366 59.7573 14.148 60.1213 13.988C60.4893 13.828 60.9033 13.748 61.3633 13.748ZM61.3933 14.81C60.9613 14.81 60.6233 14.932 60.3793 15.176C60.1353 15.42 59.9793 15.766 59.9113 16.214H62.6953C62.6953 16.022 62.6693 15.842 62.6173 15.674C62.5653 15.502 62.4853 15.352 62.3773 15.224C62.2693 15.096 62.1333 14.996 61.9693 14.924C61.8053 14.848 61.6133 14.81 61.3933 14.81ZM70.0535 20H69.3875C69.2475 20 69.1375 19.98 69.0575 19.94C68.9775 19.896 68.9175 19.81 68.8775 19.682L68.7455 19.244C68.5895 19.384 68.4355 19.508 68.2835 19.616C68.1355 19.72 67.9815 19.808 67.8215 19.88C67.6615 19.952 67.4915 20.006 67.3115 20.042C67.1315 20.078 66.9315 20.096 66.7115 20.096C66.4515 20.096 66.2115 20.062 65.9915 19.994C65.7715 19.922 65.5815 19.816 65.4215 19.676C65.2655 19.536 65.1435 19.362 65.0555 19.154C64.9675 18.946 64.9235 18.704 64.9235 18.428C64.9235 18.196 64.9835 17.968 65.1035 17.744C65.2275 17.516 65.4315 17.312 65.7155 17.132C65.9995 16.948 66.3775 16.796 66.8495 16.676C67.3215 16.556 67.9075 16.488 68.6075 16.472V16.112C68.6075 15.7 68.5195 15.396 68.3435 15.2C68.1715 15 67.9195 14.9 67.5875 14.9C67.3475 14.9 67.1475 14.928 66.9875 14.984C66.8275 15.04 66.6875 15.104 66.5675 15.176C66.4515 15.244 66.3435 15.306 66.2435 15.362C66.1435 15.418 66.0335 15.446 65.9135 15.446C65.8135 15.446 65.7275 15.42 65.6555 15.368C65.5835 15.316 65.5255 15.252 65.4815 15.176L65.2115 14.702C65.9195 14.054 66.7735 13.73 67.7735 13.73C68.1335 13.73 68.4535 13.79 68.7335 13.91C69.0175 14.026 69.2575 14.19 69.4535 14.402C69.6495 14.61 69.7975 14.86 69.8975 15.152C70.0015 15.444 70.0535 15.764 70.0535 16.112V20ZM67.1735 19.076C67.3255 19.076 67.4655 19.062 67.5935 19.034C67.7215 19.006 67.8415 18.964 67.9535 18.908C68.0695 18.852 68.1795 18.784 68.2835 18.704C68.3915 18.62 68.4995 18.522 68.6075 18.41V17.372C68.1755 17.392 67.8135 17.43 67.5215 17.486C67.2335 17.538 67.0015 17.606 66.8255 17.69C66.6495 17.774 66.5235 17.872 66.4475 17.984C66.3755 18.096 66.3395 18.218 66.3395 18.35C66.3395 18.61 66.4155 18.796 66.5675 18.908C66.7235 19.02 66.9255 19.076 67.1735 19.076ZM75.8368 15.146C75.7928 15.202 75.7488 15.246 75.7048 15.278C75.6648 15.31 75.6048 15.326 75.5248 15.326C75.4488 15.326 75.3748 15.304 75.3028 15.26C75.2308 15.212 75.1448 15.16 75.0448 15.104C74.9448 15.044 74.8248 14.992 74.6848 14.948C74.5488 14.9 74.3788 14.876 74.1748 14.876C73.9148 14.876 73.6868 14.924 73.4908 15.02C73.2948 15.112 73.1308 15.246 72.9988 15.422C72.8708 15.598 72.7748 15.812 72.7108 16.064C72.6468 16.312 72.6148 16.594 72.6148 16.91C72.6148 17.238 72.6488 17.53 72.7168 17.786C72.7888 18.042 72.8908 18.258 73.0228 18.434C73.1548 18.606 73.3148 18.738 73.5028 18.83C73.6908 18.918 73.9028 18.962 74.1388 18.962C74.3748 18.962 74.5648 18.934 74.7088 18.878C74.8568 18.818 74.9808 18.754 75.0808 18.686C75.1808 18.614 75.2668 18.55 75.3388 18.494C75.4148 18.434 75.4988 18.404 75.5908 18.404C75.7108 18.404 75.8008 18.45 75.8608 18.542L76.2868 19.082C76.1228 19.274 75.9448 19.436 75.7528 19.568C75.5608 19.696 75.3608 19.8 75.1528 19.88C74.9488 19.956 74.7368 20.01 74.5168 20.042C74.2968 20.074 74.0788 20.09 73.8628 20.09C73.4828 20.09 73.1248 20.02 72.7888 19.88C72.4528 19.736 72.1588 19.528 71.9068 19.256C71.6588 18.984 71.4608 18.652 71.3128 18.26C71.1688 17.864 71.0968 17.414 71.0968 16.91C71.0968 16.458 71.1608 16.04 71.2888 15.656C71.4208 15.268 71.6128 14.934 71.8648 14.654C72.1168 14.37 72.4288 14.148 72.8008 13.988C73.1728 13.828 73.6008 13.748 74.0848 13.748C74.5448 13.748 74.9468 13.822 75.2908 13.97C75.6388 14.118 75.9508 14.33 76.2268 14.606L75.8368 15.146ZM79.2515 20.096C78.7195 20.096 78.3095 19.946 78.0215 19.646C77.7335 19.342 77.5895 18.924 77.5895 18.392V14.954H76.9655C76.8855 14.954 76.8155 14.928 76.7555 14.876C76.6995 14.824 76.6715 14.746 76.6715 14.642V14.054L77.6615 13.892L77.9735 12.212C77.9895 12.132 78.0255 12.07 78.0815 12.026C78.1415 11.982 78.2155 11.96 78.3035 11.96H79.0715V13.898H80.6915V14.954H79.0715V18.29C79.0715 18.482 79.1195 18.632 79.2155 18.74C79.3115 18.848 79.4395 18.902 79.5995 18.902C79.6915 18.902 79.7675 18.892 79.8275 18.872C79.8915 18.848 79.9455 18.824 79.9895 18.8C80.0375 18.776 80.0795 18.754 80.1155 18.734C80.1515 18.71 80.1875 18.698 80.2235 18.698C80.2675 18.698 80.3035 18.71 80.3315 18.734C80.3595 18.754 80.3895 18.786 80.4215 18.83L80.8655 19.55C80.6495 19.73 80.4015 19.866 80.1215 19.958C79.8415 20.05 79.5515 20.096 79.2515 20.096ZM83.4481 13.844V20H81.9661V13.844H83.4481ZM83.6701 12.05C83.6701 12.178 83.6441 12.298 83.5921 12.41C83.5401 12.522 83.4701 12.62 83.3821 12.704C83.2981 12.788 83.1981 12.856 83.0821 12.908C82.9661 12.956 82.8421 12.98 82.7101 12.98C82.5821 12.98 82.4601 12.956 82.3441 12.908C82.2321 12.856 82.1341 12.788 82.0501 12.704C81.9661 12.62 81.8981 12.522 81.8461 12.41C81.7981 12.298 81.7741 12.178 81.7741 12.05C81.7741 11.918 81.7981 11.794 81.8461 11.678C81.8981 11.562 81.9661 11.462 82.0501 11.378C82.1341 11.294 82.2321 11.228 82.3441 11.18C82.4601 11.128 82.5821 11.102 82.7101 11.102C82.8421 11.102 82.9661 11.128 83.0821 11.18C83.1981 11.228 83.2981 11.294 83.3821 11.378C83.4701 11.462 83.5401 11.562 83.5921 11.678C83.6441 11.794 83.6701 11.918 83.6701 12.05ZM87.7559 13.748C88.2159 13.748 88.6319 13.822 89.0039 13.97C89.3799 14.118 89.6999 14.328 89.9639 14.6C90.2279 14.872 90.4319 15.204 90.5759 15.596C90.7199 15.988 90.7919 16.426 90.7919 16.91C90.7919 17.398 90.7199 17.838 90.5759 18.23C90.4319 18.622 90.2279 18.956 89.9639 19.232C89.6999 19.508 89.3799 19.72 89.0039 19.868C88.6319 20.016 88.2159 20.09 87.7559 20.09C87.2959 20.09 86.8779 20.016 86.5019 19.868C86.1259 19.72 85.8039 19.508 85.5359 19.232C85.2719 18.956 85.0659 18.622 84.9179 18.23C84.7739 17.838 84.7019 17.398 84.7019 16.91C84.7019 16.426 84.7739 15.988 84.9179 15.596C85.0659 15.204 85.2719 14.872 85.5359 14.6C85.8039 14.328 86.1259 14.118 86.5019 13.97C86.8779 13.822 87.2959 13.748 87.7559 13.748ZM87.7559 18.95C88.2679 18.95 88.6459 18.778 88.8899 18.434C89.1379 18.09 89.2619 17.586 89.2619 16.922C89.2619 16.258 89.1379 15.752 88.8899 15.404C88.6459 15.056 88.2679 14.882 87.7559 14.882C87.2359 14.882 86.8519 15.058 86.6039 15.41C86.3559 15.758 86.2319 16.262 86.2319 16.922C86.2319 17.582 86.3559 18.086 86.6039 18.434C86.8519 18.778 87.2359 18.95 87.7559 18.95ZM91.9482 20V13.844H92.8543C93.0463 13.844 93.1723 13.934 93.2323 14.114L93.3343 14.6C93.4583 14.472 93.5883 14.356 93.7243 14.252C93.8643 14.148 94.0103 14.058 94.1623 13.982C94.3183 13.906 94.4843 13.848 94.6603 13.808C94.8363 13.768 95.0283 13.748 95.2363 13.748C95.5723 13.748 95.8703 13.806 96.1303 13.922C96.3903 14.034 96.6063 14.194 96.7783 14.402C96.9543 14.606 97.0863 14.852 97.1743 15.14C97.2663 15.424 97.3123 15.738 97.3123 16.082V20H95.8303V16.082C95.8303 15.706 95.7423 15.416 95.5663 15.212C95.3943 15.004 95.1343 14.9 94.7863 14.9C94.5303 14.9 94.2903 14.958 94.0663 15.074C93.8423 15.19 93.6303 15.348 93.4303 15.548V20H91.9482Z" fill="white"/>
</svg>
