<svg width="16" height="12" viewBox="0 0 16 12" fill="none" xmlns="http://www.w3.org/2000/svg">
<path fill-rule="evenodd" clip-rule="evenodd" d="M2.12285 6.56227C2.05538 6.6661 2.0013 6.81463 2.0013 7.04366V8.66699C2.0013 9.19742 2.21202 9.70613 2.58709 10.0812C2.80003 10.2941 3.05603 10.4541 3.33464 10.5526V6.03672C2.99096 6.07762 2.69628 6.15369 2.47219 6.26862C2.30262 6.35558 2.19247 6.4551 2.12285 6.56227ZM1.86375 5.0822C2.50523 4.75323 3.29941 4.66699 4.0013 4.66699C4.36949 4.66699 4.66797 4.96547 4.66797 5.33366V11.3337C4.66797 11.7018 4.36949 12.0003 4.0013 12.0003C3.11725 12.0003 2.2694 11.6491 1.64428 11.024C1.01916 10.3989 0.667969 9.55105 0.667969 8.66699V7.04366C0.667969 6.58835 0.780553 6.18097 1.00476 5.83586C1.2268 5.4941 1.53332 5.25166 1.86375 5.0822Z" fill="#454545"/>
<path fill-rule="evenodd" clip-rule="evenodd" d="M11.3359 5.33366C11.3359 4.96547 11.6344 4.66699 12.0026 4.66699C12.7045 4.66699 13.4987 4.75323 14.1402 5.0822C14.4706 5.25166 14.7771 5.4941 14.9991 5.83586C15.2234 6.18097 15.3359 6.58835 15.3359 7.04366V8.66699C15.3359 9.55105 14.9847 10.3989 14.3596 11.024C13.7345 11.6491 12.8867 12.0003 12.0026 12.0003C11.6344 12.0003 11.3359 11.7018 11.3359 11.3337V5.33366ZM12.6693 6.03672V10.5526C12.9479 10.4541 13.2039 10.2941 13.4168 10.0812C13.7919 9.70613 14.0026 9.19742 14.0026 8.66699V7.04366C14.0026 6.81463 13.9485 6.6661 13.8811 6.56227C13.8114 6.4551 13.7013 6.35558 13.5317 6.26862C13.3076 6.15369 13.0129 6.07762 12.6693 6.03672Z" fill="#454545"/>
<path fill-rule="evenodd" clip-rule="evenodd" d="M8.0026 1.33333C7.11855 1.33333 6.2707 1.68452 5.64558 2.30964C5.02046 2.93477 4.66927 3.78261 4.66927 4.66667V11.3333C4.66927 11.7015 4.37079 12 4.0026 12C3.63441 12 3.33594 11.7015 3.33594 11.3333V4.66667C3.33594 3.42899 3.8276 2.242 4.70277 1.36684C5.57794 0.491665 6.76493 0 8.0026 0C9.24028 0 10.4273 0.491665 11.3024 1.36684C12.1776 2.24201 12.6693 3.42899 12.6693 4.66667V11.3333C12.6693 11.7015 12.3708 12 12.0026 12C11.6344 12 11.3359 11.7015 11.3359 11.3333V4.66667C11.3359 3.78261 10.9847 2.93477 10.3596 2.30964C9.73451 1.68452 8.88666 1.33333 8.0026 1.33333Z" fill="#454545"/>
</svg>
