<svg width="14" height="13" viewBox="0 0 14 13" fill="none" xmlns="http://www.w3.org/2000/svg">
<path d="M5.37635 2.27253e-07C4.53531 -0.000253317 3.70779 0.211654 2.97039 0.616111C2.23298 1.02057 1.60951 1.6045 1.15769 2.31388C0.705867 3.02325 0.440286 3.83513 0.385527 4.67439C0.330769 5.51365 0.488602 6.35316 0.844419 7.11523L0.361759 9.00987C0.326284 9.14904 0.327379 9.29502 0.36494 9.43364C0.4025 9.57226 0.47525 9.69883 0.576133 9.80105C0.677015 9.90327 0.802605 9.97769 0.94072 10.0171C1.07883 10.0565 1.22478 10.0595 1.36441 10.0259C1.8644 9.90586 2.63306 9.72119 3.31772 9.55786C3.99752 9.86441 4.73728 10.015 5.48283 9.99865C6.22837 9.98228 6.96081 9.79935 7.6265 9.46326C8.2922 9.12717 8.87428 8.64643 9.33012 8.05625C9.78596 7.46607 10.104 6.78139 10.261 6.05238C10.418 5.32336 10.4099 4.56847 10.2373 3.84298C10.0648 3.11749 9.7321 2.43979 9.26372 1.85952C8.79534 1.27924 8.20309 0.811081 7.53034 0.489332C6.8576 0.167582 6.12141 0.000389432 5.37569 2.27253e-07H5.37635ZM1.37641 4.99993C1.37667 4.13014 1.66044 3.28414 2.18472 2.59012C2.709 1.8961 3.44521 1.39188 4.2818 1.15387C5.11839 0.915858 6.00976 0.957024 6.82085 1.27113C7.63194 1.58524 8.31855 2.15516 8.77662 2.89455C9.2347 3.63394 9.43929 4.5025 9.35938 5.36861C9.27948 6.23472 8.91943 7.05118 8.33381 7.69428C7.74819 8.33738 6.9689 8.77206 6.11403 8.93247C5.25916 9.09288 4.3753 8.97027 3.59638 8.58321L3.43371 8.50254L3.25772 8.54454C2.64239 8.69121 1.93107 8.86121 1.39908 8.9892L1.85907 7.1839L1.90574 6.9999L1.81907 6.83123C1.5271 6.26502 1.3753 5.63699 1.37641 4.99993ZM8.70964 11.9998C7.39632 11.9998 6.20167 11.4938 5.30969 10.6665H5.37635C5.85501 10.6665 6.31967 10.6072 6.763 10.4952C7.33966 10.8165 8.00298 10.9998 8.70964 10.9998C9.34963 10.9998 9.95362 10.8498 10.4896 10.5832L10.6516 10.5025L10.8276 10.5445C11.4423 10.6912 12.1383 10.8412 12.6542 10.9512C12.5376 10.4505 12.3783 9.78053 12.2263 9.18387L12.1796 8.99987L12.2663 8.83121C12.5585 8.26505 12.7105 7.63702 12.7096 6.9999C12.7099 6.33115 12.5425 5.673 12.2225 5.08576C11.9026 4.49851 11.4404 4.00093 10.8783 3.63861C10.7607 3.16243 10.5814 2.70366 10.3449 2.27397C11.0068 2.50313 11.6131 2.86873 12.1246 3.34708C12.6362 3.82543 13.0416 4.40588 13.3146 5.05085C13.5876 5.69582 13.7221 6.39093 13.7094 7.09118C13.6967 7.79143 13.5371 8.48121 13.2409 9.11587C13.4096 9.78786 13.5802 10.5158 13.6882 10.9845C13.7199 11.1203 13.7168 11.2619 13.6793 11.3961C13.6417 11.5304 13.571 11.653 13.4735 11.7527C13.376 11.8524 13.255 11.9259 13.1216 11.9664C12.9882 12.0069 12.8467 12.0131 12.7102 11.9845C12.0613 11.8496 11.414 11.7073 10.7683 11.5578C10.1214 11.8501 9.4195 12.0008 8.70964 11.9998Z" fill="#454545"/>
</svg>
