<svg width="13" height="13" viewBox="0 0 13 13" fill="none" xmlns="http://www.w3.org/2000/svg">
<path d="M5.01412 0.586426C4.96074 0.586331 4.90786 0.596759 4.8585 0.617113C4.80915 0.637468 4.76429 0.66735 4.7265 0.705051L0.70462 4.72693C0.628461 4.80311 0.585676 4.90642 0.585676 5.01415C0.585676 5.12187 0.628461 5.22518 0.70462 5.30136C1.09462 5.69136 1.57562 5.77911 1.92581 5.77911C2.06962 5.77911 2.198 5.76449 2.29956 5.74743L4.84593 8.2938C4.7789 8.56388 4.7354 8.83927 4.71593 9.11686C4.67856 9.68724 4.74193 10.4876 5.30093 11.0466C5.37712 11.1227 5.48043 11.1655 5.58815 11.1655C5.69588 11.1655 5.79919 11.1227 5.87537 11.0466L8.17393 8.7488L10.7593 11.3342C10.9177 11.4926 11.7497 12.0671 11.9082 11.9086C12.0666 11.7502 11.4922 10.9174 11.3337 10.7597L8.74837 8.17436L11.0461 5.8758C11.1223 5.79962 11.1651 5.69631 11.1651 5.58858C11.1651 5.48086 11.1223 5.37755 11.0461 5.30136C10.4871 4.74236 9.68681 4.67818 9.11643 4.71636C8.83884 4.73582 8.56345 4.77931 8.29337 4.84636L5.747 2.3008C5.76825 2.17707 5.77912 2.05178 5.7795 1.92624C5.7795 1.57686 5.69175 1.09586 5.30093 0.705051C5.2248 0.629108 5.12166 0.586449 5.01412 0.586426Z" fill="#1D1C1D"/>
</svg>
