<svg width="20" height="20" viewBox="0 0 20 20" fill="none" xmlns="http://www.w3.org/2000/svg">
<path fill-rule="evenodd" clip-rule="evenodd" d="M19.0892 14.5098V17.2598C19.0913 17.776 18.8756 18.2692 18.4952 18.6181C18.1149 18.9671 17.605 19.1396 17.0908 19.0931C14.2701 18.7866 11.5606 17.8227 9.18001 16.2789C6.96519 14.8715 5.0874 12.9938 3.68001 10.7789C2.13083 8.38754 1.16673 5.66484 0.865845 2.83143C0.819529 2.3189 0.990761 1.8105 1.33771 1.43042C1.68467 1.05034 2.17539 0.833583 2.69001 0.833098H5.44001C6.36022 0.824041 7.14455 1.49857 7.27334 2.40976C7.38942 3.28983 7.60467 4.15393 7.91501 4.9856C8.16685 5.65557 8.00578 6.41084 7.50251 6.91976L6.33834 8.08393C7.64327 10.3788 9.54343 12.279 11.8383 13.5839L13.0025 12.4198C13.5114 11.9165 14.2667 11.7554 14.9367 12.0073C15.7683 12.3176 16.6324 12.5329 17.5125 12.6489C18.4343 12.779 19.1123 13.5792 19.0892 14.5098Z" stroke="white" stroke-width="1.22693" stroke-linecap="round" stroke-linejoin="round"/>
</svg>
