<svg width="12" height="16" viewBox="0 0 12 16" fill="none" xmlns="http://www.w3.org/2000/svg">
<path fill-rule="evenodd" clip-rule="evenodd" d="M2.34163 11.9986C2.41304 11.9629 2.49179 11.9443 2.57164 11.9443H9.42935C9.50919 11.9443 9.58794 11.9629 9.65936 11.9986L11.7167 13.0273C11.8909 13.1144 12.001 13.2925 12.001 13.4873V14.8589C12.001 15.1429 11.7707 15.3732 11.4867 15.3732H0.514328C0.230272 15.3732 0 15.1429 0 14.8589V13.4873C0 13.2925 0.110067 13.1144 0.284314 13.0273L2.34163 11.9986ZM2.69306 12.973L1.02866 13.8052V14.3445H10.9723V13.8052L9.30793 12.973H2.69306Z" fill="#454545"/>
<path fill-rule="evenodd" clip-rule="evenodd" d="M2.05859 6.28581C2.05859 6.00176 2.28887 5.77148 2.57292 5.77148H9.43063C9.71468 5.77148 9.94496 6.00176 9.94496 6.28581C9.94496 6.56987 9.71468 6.80014 9.43063 6.80014H2.57292C2.28887 6.80014 2.05859 6.56987 2.05859 6.28581Z" fill="#454545"/>
<path fill-rule="evenodd" clip-rule="evenodd" d="M4.86452 5.79227C5.13717 5.87194 5.29361 6.15756 5.21393 6.43021L3.60281 11.9436H8.40247L6.79135 6.43021C6.71168 6.15756 6.86812 5.87194 7.14077 5.79227C7.41342 5.71259 7.69904 5.86903 7.77871 6.14168L9.58229 12.3136C9.62771 12.4691 9.59728 12.6368 9.50015 12.7664C9.40302 12.8959 9.25054 12.9722 9.08861 12.9722H2.91668C2.75474 12.9722 2.60226 12.8959 2.50513 12.7664C2.40801 12.6368 2.37757 12.4691 2.423 12.3136L4.22657 6.14168C4.30625 5.86903 4.59186 5.71259 4.86452 5.79227Z" fill="#454545"/>
<path fill-rule="evenodd" clip-rule="evenodd" d="M4.00558 1.30957C4.57665 0.867476 5.27844 0.6277 6.00064 0.62793C6.72283 0.6277 7.42462 0.867476 7.99569 1.30957C8.56681 1.7517 8.97479 2.3711 9.15549 3.07039C9.33502 3.76516 9.28008 4.49964 8.99942 5.15979C8.87482 5.49294 8.49633 6.21389 7.85218 6.697L7.23499 5.87408C7.67868 5.54131 7.96237 5.0015 8.0382 4.79335L8.04321 4.77959L8.049 4.76614C8.24429 4.31219 8.28318 3.80621 8.15955 3.32774C8.03591 2.84928 7.75677 2.42548 7.366 2.12297C6.97523 1.82046 6.49501 1.6564 6.00083 1.65659H6.00044C5.50626 1.6564 5.02604 1.82046 4.63527 2.12297C4.2445 2.42548 3.96536 2.84928 3.84172 3.32774C3.71809 3.80621 3.75698 4.31219 3.95227 4.76614C4.14757 5.22009 4.4882 5.59626 4.92061 5.8355L4.42261 6.73558C3.79064 6.38591 3.29279 5.83613 3.00736 5.17266C2.72192 4.5092 2.66508 3.76968 2.84578 3.07039C3.02648 2.3711 3.43446 1.7517 4.00558 1.30957ZM6.00064 0.62793C6.0007 0.62793 6.00076 0.62793 6.00083 0.62793L6.00064 1.14226L6.00044 0.62793C6.00051 0.62793 6.00057 0.62793 6.00064 0.62793Z" fill="#454545"/>
</svg>
