<svg width="12" height="12" viewBox="0 0 12 12" fill="none" xmlns="http://www.w3.org/2000/svg">
<path d="M2.73047 2.7271C2.73047 2.58243 2.78794 2.44369 2.89023 2.3414C2.99252 2.23911 3.13126 2.18164 3.27592 2.18164H8.73047C8.87513 2.18164 9.01387 2.23911 9.11616 2.3414C9.21846 2.44369 9.27592 2.58243 9.27592 2.7271C9.27592 2.87176 9.21846 3.0105 9.11616 3.11279C9.01387 3.21508 8.87513 3.27255 8.73047 3.27255H3.27592C3.13126 3.27255 2.99252 3.21508 2.89023 3.11279C2.78794 3.0105 2.73047 2.87176 2.73047 2.7271Z" fill="#454545"/>
<path d="M2.73047 4.90874C2.73047 4.76407 2.78794 4.62533 2.89023 4.52304C2.99252 4.42075 3.13126 4.36328 3.27592 4.36328H8.73047C8.87513 4.36328 9.01387 4.42075 9.11616 4.52304C9.21846 4.62533 9.27592 4.76407 9.27592 4.90874C9.27592 5.0534 9.21846 5.19214 9.11616 5.29443C9.01387 5.39672 8.87513 5.45419 8.73047 5.45419H3.27592C3.13126 5.45419 2.99252 5.39672 2.89023 5.29443C2.78794 5.19214 2.73047 5.0534 2.73047 4.90874Z" fill="#454545"/>
<path d="M3.27592 6.54492C3.13126 6.54492 2.99252 6.60239 2.89023 6.70468C2.78794 6.80697 2.73047 6.94571 2.73047 7.09038C2.73047 7.23504 2.78794 7.37378 2.89023 7.47607C2.99252 7.57836 3.13126 7.63583 3.27592 7.63583H8.73047C8.87513 7.63583 9.01387 7.57836 9.11616 7.47607C9.21846 7.37378 9.27592 7.23504 9.27592 7.09038C9.27592 6.94571 9.21846 6.80697 9.11616 6.70468C9.01387 6.60239 8.87513 6.54492 8.73047 6.54492H3.27592Z" fill="#454545"/>
<path d="M2.73047 9.27299C2.73047 9.12833 2.78794 8.98959 2.89023 8.8873C2.99252 8.78501 3.13126 8.72754 3.27592 8.72754H5.45774C5.60241 8.72754 5.74114 8.78501 5.84344 8.8873C5.94573 8.98959 6.0032 9.12833 6.0032 9.27299C6.0032 9.41766 5.94573 9.5564 5.84344 9.65869C5.74114 9.76098 5.60241 9.81845 5.45774 9.81845H3.27592C3.13126 9.81845 2.99252 9.76098 2.89023 9.65869C2.78794 9.5564 2.73047 9.41766 2.73047 9.27299Z" fill="#454545"/>
<path fill-rule="evenodd" clip-rule="evenodd" d="M0.546875 1.63636C0.546875 1.20237 0.719277 0.786158 1.02615 0.47928C1.33303 0.172402 1.74925 0 2.18324 0H9.8196C10.2536 0 10.6698 0.172402 10.9767 0.47928C11.2836 0.786158 11.456 1.20237 11.456 1.63636V10.3636C11.456 10.7976 11.2836 11.2138 10.9767 11.5207C10.6698 11.8276 10.2536 12 9.8196 12H2.18324C1.74925 12 1.33303 11.8276 1.02615 11.5207C0.719277 11.2138 0.546875 10.7976 0.546875 10.3636V1.63636ZM2.18324 1.09091H9.8196C9.96427 1.09091 10.103 1.14838 10.2053 1.25067C10.3076 1.35296 10.3651 1.4917 10.3651 1.63636V10.3636C10.3651 10.5083 10.3076 10.647 10.2053 10.7493C10.103 10.8516 9.96427 10.9091 9.8196 10.9091H2.18324C2.03858 10.9091 1.89984 10.8516 1.79754 10.7493C1.69525 10.647 1.63778 10.5083 1.63778 10.3636V1.63636C1.63778 1.4917 1.69525 1.35296 1.79754 1.25067C1.89984 1.14838 2.03858 1.09091 2.18324 1.09091Z" fill="#454545"/>
</svg>
