<svg width="10" height="7" viewBox="0 0 10 7" fill="none" xmlns="http://www.w3.org/2000/svg">
<path d="M1.84162 -0.000479891L8.15662 -0.000479339C8.40593 -0.000840283 8.65025 0.0694098 8.86129 0.20214C9.07233 0.33487 9.24147 0.524652 9.34912 0.74952C9.47515 1.01633 9.52369 1.31317 9.48921 1.60622C9.45474 1.89927 9.33863 2.17675 9.15412 2.40702L5.99662 6.23202C5.87271 6.37499 5.71951 6.48966 5.54741 6.56824C5.37531 6.64683 5.18832 6.6875 4.99912 6.6875C4.80993 6.6875 4.62294 6.64683 4.45084 6.56824C4.27873 6.48966 4.12554 6.37499 4.00162 6.23202L0.844123 2.40702C0.659619 2.17675 0.543512 1.89927 0.509036 1.60622C0.474559 1.31317 0.523099 1.01633 0.649125 0.74952C0.75678 0.524652 0.925918 0.334869 1.13696 0.202139C1.348 0.0694091 1.59231 -0.000840878 1.84162 -0.000479891Z" fill="#454545"/>
</svg>
