<svg width="32" height="32" viewBox="0 0 32 32" fill="none" xmlns="http://www.w3.org/2000/svg">
<path d="M16 32C24.8366 32 32 24.8366 32 16C32 7.16344 24.8366 0 16 0C7.16344 0 0 7.16344 0 16C0 24.8366 7.16344 32 16 32Z" fill="#00B87C"/>
<path d="M21.4078 17.2389V20.2715C21.4078 20.8988 20.8993 21.4073 20.272 21.4073H12.3213C11.6941 21.4073 11.1855 20.8988 11.1855 20.2715V12.3209C11.1855 11.6936 11.6941 11.1851 12.3213 11.1851H15.3539" stroke="#F2F2F2" stroke-width="1.56648" stroke-linecap="round" stroke-linejoin="round"/>
<path fill-rule="evenodd" clip-rule="evenodd" d="M19.7034 10.6172L21.975 12.8888L16.296 18.5678H14.0244V16.2962L19.7034 10.6172Z" stroke="#F2F2F2" stroke-width="1.56648" stroke-linecap="round" stroke-linejoin="round"/>
</svg>
