<?xml version="1.0" standalone="no"?>
<!DOCTYPE svg PUBLIC "-//W3C//DTD SVG 20010904//EN"
 "http://www.w3.org/TR/2001/REC-SVG-20010904/DTD/svg10.dtd">
<svg version="1.0" xmlns="http://www.w3.org/2000/svg"
 width="980.000000pt" height="980.000000pt" viewBox="0 0 980.000000 980.000000"
 preserveAspectRatio="xMidYMid meet">

<g transform="translate(0.000000,980.000000) scale(0.100000,-0.100000)"
fill="#000000" stroke="none">
<path d="M4560 9789 c-1035 -75 -1998 -463 -2800 -1128 -150 -123 -501 -475
-622 -621 -881 -1068 -1270 -2403 -1098 -3765 119 -934 501 -1801 1124 -2545
98 -117 370 -393 496 -504 1310 -1150 3104 -1521 4760 -984 1113 361 2076
1130 2686 2144 503 838 746 1840 684 2819 -70 1094 -491 2109 -1216 2935 -113
129 -387 399 -509 501 -770 645 -1664 1026 -2665 1134 -174 19 -664 27 -840
14z m600 -429 c964 -60 1850 -409 2597 -1024 139 -115 464 -440 579 -579 918
-1115 1246 -2570 892 -3961 -198 -780 -590 -1467 -1163 -2042 -313 -313 -587
-526 -945 -731 -977 -561 -2136 -730 -3241 -473 -116 28 -300 78 -359 100 -14
5 -72 25 -130 45 -508 178 -1024 483 -1445 856 -594 524 -1037 1195 -1290
1954 -166 497 -245 1086 -217 1609 37 662 183 1217 472 1791 260 517 602 961
1035 1345 879 778 2047 1182 3215 1110z"/>
<path d="M2917 7059 c-320 -43 -583 -278 -668 -594 -30 -111 -30 -288 0 -399
104 -388 469 -640 862 -596 280 32 506 191 629 445 60 124 80 212 80 353 0
307 -169 580 -446 717 -131 65 -311 94 -457 74z"/>
<path d="M6674 7060 c-176 -24 -339 -105 -464 -230 -72 -72 -112 -131 -160
-233 -50 -109 -70 -202 -70 -332 0 -130 20 -223 70 -332 84 -180 197 -297 377
-387 211 -106 479 -107 697 -2 207 100 366 294 427 521 16 61 21 109 21 200 0
91 -5 139 -21 200 -91 340 -380 576 -731 598 -47 3 -112 2 -146 -3z"/>
<path d="M2225 4113 c25 -414 109 -741 279 -1083 129 -259 289 -482 496 -691
214 -216 422 -367 695 -505 194 -98 362 -161 555 -208 263 -63 332 -71 655
-71 255 1 306 3 419 23 303 53 543 132 801 266 499 258 905 663 1154 1154 184
364 269 682 297 1120 l6 102 -2682 0 -2682 0 7 -107z"/>
</g>
</svg>
