<svg width="30" height="16" viewBox="0 0 30 16" fill="none" xmlns="http://www.w3.org/2000/svg">
<path d="M6.25 3H23.75" stroke="#333333" stroke-width="1.22693" stroke-linecap="round" stroke-linejoin="round"/>
<path d="M6.25 8H23.75" stroke="#333333" stroke-width="1.22693" stroke-linecap="round" stroke-linejoin="round"/>
<path d="M6.25 13H23.75" stroke="#333333" stroke-width="1.22693" stroke-linecap="round" stroke-linejoin="round"/>
<path fill-rule="evenodd" clip-rule="evenodd" d="M20.0007 4.66634C20.9211 4.66634 21.6673 3.92015 21.6673 2.99967C21.6673 2.0792 20.9211 1.33301 20.0007 1.33301C19.0802 1.33301 18.334 2.0792 18.334 2.99967C18.334 3.92015 19.0802 4.66634 20.0007 4.66634Z" stroke="#333333" stroke-width="1.22693" stroke-linecap="round" stroke-linejoin="round"/>
<path fill-rule="evenodd" clip-rule="evenodd" d="M20.0007 14.6663C20.9211 14.6663 21.6673 13.9201 21.6673 12.9997C21.6673 12.0792 20.9211 11.333 20.0007 11.333C19.0802 11.333 18.334 12.0792 18.334 12.9997C18.334 13.9201 19.0802 14.6663 20.0007 14.6663Z" stroke="#333333" stroke-width="1.22693" stroke-linecap="round" stroke-linejoin="round"/>
<path fill-rule="evenodd" clip-rule="evenodd" d="M11.0007 9.66634C11.9211 9.66634 12.6673 8.92015 12.6673 7.99967C12.6673 7.0792 11.9211 6.33301 11.0007 6.33301C10.0802 6.33301 9.33398 7.0792 9.33398 7.99967C9.33398 8.92015 10.0802 9.66634 11.0007 9.66634Z" stroke="#333333" stroke-width="1.22693" stroke-linecap="round" stroke-linejoin="round"/>
</svg>
