<svg width="18" height="18" viewBox="0 0 18 18" fill="none" xmlns="http://www.w3.org/2000/svg">
<path d="M7.03125 8.71875C7.25503 8.71875 7.46964 8.62986 7.62787 8.47162C7.78611 8.31339 7.875 8.09878 7.875 7.875C7.875 7.65122 7.78611 7.43661 7.62787 7.27838C7.46964 7.12014 7.25503 7.03125 7.03125 7.03125C6.80747 7.03125 6.59286 7.12014 6.43463 7.27838C6.27639 7.43661 6.1875 7.65122 6.1875 7.875C6.1875 8.09878 6.27639 8.31339 6.43463 8.47162C6.59286 8.62986 6.80747 8.71875 7.03125 8.71875Z" fill="black"/>
<path d="M6.903 10.8754C6.85395 10.8196 6.79433 10.774 6.72758 10.7414C6.66082 10.7087 6.58826 10.6897 6.51409 10.6852C6.43992 10.6808 6.3656 10.6911 6.29542 10.7155C6.22525 10.74 6.16062 10.7781 6.10526 10.8276C6.0499 10.8772 6.0049 10.9372 5.97288 11.0043C5.94086 11.0713 5.92243 11.1441 5.91868 11.2183C5.91493 11.2925 5.92591 11.3667 5.95101 11.4367C5.9761 11.5066 6.0148 11.5709 6.06488 11.6258C6.43399 12.039 6.88631 12.3695 7.39216 12.5955C7.898 12.8216 8.44594 12.9382 9 12.9375C9.55407 12.9382 10.102 12.8216 10.6078 12.5955C11.1137 12.3695 11.566 12.039 11.9351 11.6258C12.033 11.5144 12.0829 11.3689 12.0741 11.2208C12.0652 11.0728 11.9983 10.9343 11.8878 10.8354C11.7773 10.7365 11.6323 10.6852 11.4842 10.6927C11.3361 10.7002 11.1969 10.7659 11.097 10.8754C10.8334 11.1708 10.5103 11.4071 10.1489 11.5686C9.78744 11.7301 9.39589 11.8132 9 11.8125C8.1675 11.8125 7.41938 11.4514 6.903 10.8754Z" fill="black"/>
<path d="M11.8125 7.875C11.8125 8.09878 11.7236 8.31339 11.5654 8.47162C11.4071 8.62986 11.1925 8.71875 10.9688 8.71875C10.745 8.71875 10.5304 8.62986 10.3721 8.47162C10.2139 8.31339 10.125 8.09878 10.125 7.875C10.125 7.65122 10.2139 7.43661 10.3721 7.27838C10.5304 7.12014 10.745 7.03125 10.9688 7.03125C11.1925 7.03125 11.4071 7.12014 11.5654 7.27838C11.7236 7.43661 11.8125 7.65122 11.8125 7.875Z" fill="black"/>
<path d="M15.75 9C15.75 8.11358 15.5754 7.23583 15.2362 6.41689C14.897 5.59794 14.3998 4.85382 13.773 4.22703C13.1462 3.60023 12.4021 3.10303 11.5831 2.76381C10.7642 2.42459 9.88642 2.25 9 2.25C8.11358 2.25 7.23583 2.42459 6.41689 2.76381C5.59794 3.10303 4.85382 3.60023 4.22703 4.22703C3.60023 4.85382 3.10303 5.59794 2.76381 6.41689C2.42459 7.23583 2.25 8.11358 2.25 9C2.25 10.7902 2.96116 12.5071 4.22703 13.773C5.4929 15.0388 7.20979 15.75 9 15.75C10.7902 15.75 12.5071 15.0388 13.773 13.773C15.0388 12.5071 15.75 10.7902 15.75 9ZM3.375 9C3.375 7.50816 3.96763 6.07742 5.02252 5.02252C6.07742 3.96763 7.50816 3.375 9 3.375C10.4918 3.375 11.9226 3.96763 12.9775 5.02252C14.0324 6.07742 14.625 7.50816 14.625 9C14.625 10.4918 14.0324 11.9226 12.9775 12.9775C11.9226 14.0324 10.4918 14.625 9 14.625C7.50816 14.625 6.07742 14.0324 5.02252 12.9775C3.96763 11.9226 3.375 10.4918 3.375 9Z" fill="black"/>
</svg>
