<svg width="10" height="12" viewBox="0 0 10 12" fill="none" xmlns="http://www.w3.org/2000/svg">
<path fill-rule="evenodd" clip-rule="evenodd" d="M3.29639 1.33317C3.29639 1.03671 3.53671 0.796387 3.83317 0.796387H9.08317C9.37962 0.796387 9.61995 1.03671 9.61995 1.33317C9.61995 1.62962 9.37962 1.86995 9.08317 1.86995H3.83317C3.53671 1.86995 3.29639 1.62962 3.29639 1.33317Z" fill="#8B8B8B"/>
<path fill-rule="evenodd" clip-rule="evenodd" d="M0.379883 10.6667C0.379883 10.3702 0.620207 10.1299 0.916663 10.1299H6.16666C6.46312 10.1299 6.70344 10.3702 6.70344 10.6667C6.70344 10.9631 6.46312 11.2034 6.16666 11.2034H0.916663C0.620207 11.2034 0.379883 10.9631 0.379883 10.6667Z" fill="#8B8B8B"/>
<path fill-rule="evenodd" clip-rule="evenodd" d="M6.93829 0.830709C7.21587 0.934802 7.35651 1.24421 7.25242 1.52179L3.75242 10.8551C3.64833 11.1327 3.33892 11.2733 3.06134 11.1692C2.78376 11.0652 2.64312 10.7557 2.74721 10.4782L6.24721 1.14484C6.35131 0.867256 6.66071 0.726617 6.93829 0.830709Z" fill="#8B8B8B"/>
</svg>
