<svg width="14" height="14" viewBox="0 0 14 14" fill="none" xmlns="http://www.w3.org/2000/svg">
<path fill-rule="evenodd" clip-rule="evenodd" d="M7.44913 1.12448C8.96586 -0.39361 11.3768 -0.3719 12.8678 1.17327C14.3589 2.71844 14.3798 5.21688 12.9149 6.78867L12.9077 6.79645L10.9489 8.82621C10.9489 8.82623 10.9489 8.82618 10.9489 8.82621C10.156 9.64815 9.0576 10.0728 7.93895 9.98976C6.82026 9.90673 5.79153 9.32428 5.11974 8.39358C4.92098 8.11822 4.97526 7.72802 5.24098 7.52205C5.50669 7.31608 5.88322 7.37233 6.08198 7.64769C6.54493 8.28907 7.25386 8.69045 8.02479 8.74767C8.79571 8.80489 9.55261 8.51229 10.099 7.94583L12.054 5.91986C13.0601 4.83647 13.0445 3.11742 12.0181 2.05381C10.9916 0.989986 9.33231 0.974046 8.2869 2.01721L7.16709 3.17092C6.93177 3.41336 6.55136 3.41221 6.3174 3.16835C6.08345 2.92449 6.08456 2.53026 6.31988 2.28782L7.44913 1.12448Z" fill="#8B8B8B"/>
<path fill-rule="evenodd" clip-rule="evenodd" d="M3.0512 5.17371C3.8441 4.35177 4.9424 3.92722 6.06105 4.01025C7.17974 4.09327 8.20847 4.67572 8.88026 5.60642C9.07901 5.88178 9.02473 6.27197 8.75902 6.47794C8.49331 6.68391 8.11678 6.62766 7.91802 6.3523C7.45507 5.71093 6.74614 5.30954 5.97521 5.25233C5.20429 5.19511 4.44739 5.4877 3.90097 6.05417L1.94597 8.08012C0.939932 9.16351 0.955504 10.8826 1.98186 11.9462C3.00822 13.0098 4.66706 13.0259 5.7125 11.9834L6.82514 10.8303C7.05977 10.5872 7.44019 10.5872 7.67483 10.8303C7.90946 11.0735 7.90946 11.4677 7.67483 11.7109L6.55093 12.8756C5.0342 14.3936 2.62322 14.3719 1.13217 12.8267C-0.358872 11.2815 -0.379822 8.7831 1.08509 7.21132L1.09234 7.20354L3.0512 5.17371C3.05117 5.17374 3.05122 5.17369 3.0512 5.17371Z" fill="#8B8B8B"/>
</svg>
