<svg width="13" height="9" viewBox="0 0 13 9" fill="none" xmlns="http://www.w3.org/2000/svg">
<path fill-rule="evenodd" clip-rule="evenodd" d="M3.55713 0.750234C3.55713 0.480165 3.77606 0.26123 4.04613 0.26123H12.2459C12.516 0.26123 12.7349 0.480165 12.7349 0.750234C12.7349 1.0203 12.516 1.23924 12.2459 1.23924H4.04613C3.77606 1.23924 3.55713 1.0203 3.55713 0.750234Z" fill="#8B8B8B"/>
<path fill-rule="evenodd" clip-rule="evenodd" d="M3.55713 4.50023C3.55713 4.23016 3.77606 4.01123 4.04613 4.01123H12.2459C12.516 4.01123 12.7349 4.23016 12.7349 4.50023C12.7349 4.7703 12.516 4.98924 12.2459 4.98924H4.04613C3.77606 4.98924 3.55713 4.7703 3.55713 4.50023Z" fill="#8B8B8B"/>
<path fill-rule="evenodd" clip-rule="evenodd" d="M3.55713 8.25023C3.55713 7.98016 3.77606 7.76123 4.04613 7.76123H12.2459C12.516 7.76123 12.7349 7.98016 12.7349 8.25023C12.7349 8.5203 12.516 8.73924 12.2459 8.73924H4.04613C3.77606 8.73924 3.55713 8.5203 3.55713 8.25023Z" fill="#8B8B8B"/>
<path fill-rule="evenodd" clip-rule="evenodd" d="M2.01221 0.750234C2.01221 0.480165 1.79327 0.26123 1.5232 0.26123H0.892452C0.622383 0.26123 0.403449 0.480165 0.403449 0.750234C0.403449 1.0203 0.622383 1.23924 0.892452 1.23924H1.5232C1.79327 1.23924 2.01221 1.0203 2.01221 0.750234Z" fill="#8B8B8B"/>
<path fill-rule="evenodd" clip-rule="evenodd" d="M2.01221 4.50023C2.01221 4.23016 1.79327 4.01123 1.5232 4.01123H0.892452C0.622383 4.01123 0.403449 4.23016 0.403449 4.50023C0.403449 4.7703 0.622383 4.98924 0.892452 4.98924H1.5232C1.79327 4.98924 2.01221 4.7703 2.01221 4.50023Z" fill="#8B8B8B"/>
<path d="M1.52295 8.25H0.892198" stroke="#8B8B8B" stroke-width="0.978006" stroke-linecap="round" stroke-linejoin="round"/>
</svg>
