<svg width="25" height="25" viewBox="0 0 25 25" fill="none" xmlns="http://www.w3.org/2000/svg">
<path d="M21.5 12C21.5034 13.3199 21.1951 14.6219 20.6 15.8C19.8944 17.2118 18.8098 18.3992 17.4674 19.2293C16.1251 20.0594 14.5782 20.4994 13 20.5C11.6801 20.5035 10.3781 20.1951 9.2 19.6L3.5 21.5L5.4 15.8C4.80493 14.6219 4.49656 13.3199 4.5 12C4.50061 10.4218 4.94061 8.87488 5.77072 7.53258C6.60083 6.19028 7.78825 5.1056 9.2 4.40003C10.3781 3.80496 11.6801 3.49659 13 3.50003H13.5C15.5843 3.61502 17.553 4.49479 19.0291 5.97089C20.5052 7.44699 21.385 9.41568 21.5 11.5V12Z" stroke="#3A3A3A" stroke-width="2" stroke-linecap="round" stroke-linejoin="round"/>
</svg>
