<svg width="14" height="14" viewBox="0 0 14 14" fill="none" xmlns="http://www.w3.org/2000/svg">
<path fill-rule="evenodd" clip-rule="evenodd" d="M7 1.64706C4.04365 1.64706 1.64706 4.04365 1.64706 7C1.64706 9.95635 4.04365 12.3529 7 12.3529C9.95635 12.3529 12.3529 9.95635 12.3529 7C12.3529 4.04365 9.95635 1.64706 7 1.64706ZM0 7C0 3.13401 3.13401 0 7 0C10.866 0 14 3.13401 14 7C14 10.866 10.866 14 7 14C3.13401 14 0 10.866 0 7Z" fill="#454545"/>
<path fill-rule="evenodd" clip-rule="evenodd" d="M7 5.84615C6.36275 5.84615 5.84615 6.36275 5.84615 7C5.84615 7.63725 6.36275 8.15385 7 8.15385C7.63725 8.15385 8.15385 7.63725 8.15385 7C8.15385 6.36275 7.63725 5.84615 7 5.84615ZM4 7C4 5.34315 5.34315 4 7 4C8.65685 4 10 5.34315 10 7C10 8.65685 8.65685 10 7 10C5.34315 10 4 8.65685 4 7Z" fill="#454545"/>
</svg>
