<svg width="102" height="41" viewBox="0 0 102 41" fill="none" xmlns="http://www.w3.org/2000/svg">
<path fill-rule="evenodd" clip-rule="evenodd" d="M6 0C2.68629 0 0 2.68629 0 6V29C0 32.3137 2.68629 35 6 35H77.941L83.4951 41L89.0492 35H96C99.3137 35 102 32.3137 102 29V6C102 2.68629 99.3137 0 96 0H6Z" fill="#3A3A3A"/>
<path d="M20.232 17.4C20.3 17.528 20.362 17.662 20.418 17.802C20.478 17.938 20.536 18.076 20.592 18.216C20.648 18.072 20.706 17.93 20.766 17.79C20.826 17.65 20.89 17.516 20.958 17.388L23.526 12.582C23.558 12.522 23.59 12.474 23.622 12.438C23.658 12.402 23.696 12.376 23.736 12.36C23.78 12.344 23.828 12.334 23.88 12.33C23.932 12.326 23.994 12.324 24.066 12.324H25.284V21H23.862V15.396C23.862 15.292 23.864 15.178 23.868 15.054C23.876 14.93 23.886 14.804 23.898 14.676L21.276 19.596C21.216 19.708 21.138 19.796 21.042 19.86C20.946 19.92 20.834 19.95 20.706 19.95H20.484C20.356 19.95 20.244 19.92 20.148 19.86C20.052 19.796 19.974 19.708 19.914 19.596L17.256 14.658C17.272 14.79 17.282 14.92 17.286 15.048C17.294 15.172 17.298 15.288 17.298 15.396V21H15.876V12.324H17.094C17.166 12.324 17.228 12.326 17.28 12.33C17.332 12.334 17.378 12.344 17.418 12.36C17.462 12.376 17.502 12.402 17.538 12.438C17.574 12.474 17.608 12.522 17.64 12.582L20.232 17.4ZM29.5763 14.748C30.0363 14.748 30.4523 14.822 30.8243 14.97C31.2003 15.118 31.5203 15.328 31.7843 15.6C32.0483 15.872 32.2523 16.204 32.3963 16.596C32.5403 16.988 32.6123 17.426 32.6123 17.91C32.6123 18.398 32.5403 18.838 32.3963 19.23C32.2523 19.622 32.0483 19.956 31.7843 20.232C31.5203 20.508 31.2003 20.72 30.8243 20.868C30.4523 21.016 30.0363 21.09 29.5763 21.09C29.1163 21.09 28.6983 21.016 28.3223 20.868C27.9463 20.72 27.6243 20.508 27.3563 20.232C27.0923 19.956 26.8863 19.622 26.7383 19.23C26.5943 18.838 26.5223 18.398 26.5223 17.91C26.5223 17.426 26.5943 16.988 26.7383 16.596C26.8863 16.204 27.0923 15.872 27.3563 15.6C27.6243 15.328 27.9463 15.118 28.3223 14.97C28.6983 14.822 29.1163 14.748 29.5763 14.748ZM29.5763 19.95C30.0883 19.95 30.4663 19.778 30.7103 19.434C30.9583 19.09 31.0823 18.586 31.0823 17.922C31.0823 17.258 30.9583 16.752 30.7103 16.404C30.4663 16.056 30.0883 15.882 29.5763 15.882C29.0563 15.882 28.6723 16.058 28.4243 16.41C28.1763 16.758 28.0523 17.262 28.0523 17.922C28.0523 18.582 28.1763 19.086 28.4243 19.434C28.6723 19.778 29.0563 19.95 29.5763 19.95ZM33.7686 21V14.844H34.6386C34.7906 14.844 34.8966 14.872 34.9566 14.928C35.0166 14.984 35.0566 15.08 35.0766 15.216L35.1666 15.96C35.3866 15.58 35.6446 15.28 35.9406 15.06C36.2366 14.84 36.5686 14.73 36.9366 14.73C37.2406 14.73 37.4926 14.8 37.6926 14.94L37.5006 16.05C37.4886 16.122 37.4626 16.174 37.4226 16.206C37.3826 16.234 37.3286 16.248 37.2606 16.248C37.2006 16.248 37.1186 16.234 37.0146 16.206C36.9106 16.178 36.7726 16.164 36.6006 16.164C36.2926 16.164 36.0286 16.25 35.8086 16.422C35.5886 16.59 35.4026 16.838 35.2506 17.166V21H33.7686ZM41.211 14.748C41.599 14.748 41.955 14.81 42.279 14.934C42.607 15.058 42.889 15.24 43.125 15.48C43.361 15.716 43.545 16.008 43.677 16.356C43.809 16.7 43.875 17.094 43.875 17.538C43.875 17.65 43.869 17.744 43.857 17.82C43.849 17.892 43.831 17.95 43.803 17.994C43.779 18.034 43.745 18.064 43.701 18.084C43.657 18.1 43.601 18.108 43.533 18.108H39.729C39.773 18.74 39.943 19.204 40.239 19.5C40.535 19.796 40.927 19.944 41.415 19.944C41.655 19.944 41.861 19.916 42.033 19.86C42.209 19.804 42.361 19.742 42.489 19.674C42.621 19.606 42.735 19.544 42.831 19.488C42.931 19.432 43.027 19.404 43.119 19.404C43.179 19.404 43.231 19.416 43.275 19.44C43.319 19.464 43.357 19.498 43.389 19.542L43.821 20.082C43.657 20.274 43.473 20.436 43.269 20.568C43.065 20.696 42.851 20.8 42.627 20.88C42.407 20.956 42.181 21.01 41.949 21.042C41.721 21.074 41.499 21.09 41.283 21.09C40.855 21.09 40.457 21.02 40.089 20.88C39.721 20.736 39.401 20.526 39.129 20.25C38.857 19.97 38.643 19.626 38.487 19.218C38.331 18.806 38.253 18.33 38.253 17.79C38.253 17.37 38.321 16.976 38.457 16.608C38.593 16.236 38.787 15.914 39.039 15.642C39.295 15.366 39.605 15.148 39.969 14.988C40.337 14.828 40.751 14.748 41.211 14.748ZM41.241 15.81C40.809 15.81 40.471 15.932 40.227 16.176C39.983 16.42 39.827 16.766 39.759 17.214H42.543C42.543 17.022 42.517 16.842 42.465 16.674C42.413 16.502 42.333 16.352 42.225 16.224C42.117 16.096 41.981 15.996 41.817 15.924C41.653 15.848 41.461 15.81 41.241 15.81ZM52.2215 21H51.5555C51.4155 21 51.3055 20.98 51.2255 20.94C51.1455 20.896 51.0855 20.81 51.0455 20.682L50.9135 20.244C50.7575 20.384 50.6035 20.508 50.4515 20.616C50.3035 20.72 50.1495 20.808 49.9895 20.88C49.8295 20.952 49.6595 21.006 49.4795 21.042C49.2995 21.078 49.0995 21.096 48.8795 21.096C48.6195 21.096 48.3795 21.062 48.1595 20.994C47.9395 20.922 47.7495 20.816 47.5895 20.676C47.4335 20.536 47.3115 20.362 47.2235 20.154C47.1355 19.946 47.0915 19.704 47.0915 19.428C47.0915 19.196 47.1515 18.968 47.2715 18.744C47.3955 18.516 47.5995 18.312 47.8835 18.132C48.1675 17.948 48.5455 17.796 49.0175 17.676C49.4895 17.556 50.0755 17.488 50.7755 17.472V17.112C50.7755 16.7 50.6875 16.396 50.5115 16.2C50.3395 16 50.0875 15.9 49.7555 15.9C49.5155 15.9 49.3155 15.928 49.1555 15.984C48.9955 16.04 48.8555 16.104 48.7355 16.176C48.6195 16.244 48.5115 16.306 48.4115 16.362C48.3115 16.418 48.2015 16.446 48.0815 16.446C47.9815 16.446 47.8955 16.42 47.8235 16.368C47.7515 16.316 47.6935 16.252 47.6495 16.176L47.3795 15.702C48.0875 15.054 48.9415 14.73 49.9415 14.73C50.3015 14.73 50.6215 14.79 50.9015 14.91C51.1855 15.026 51.4255 15.19 51.6215 15.402C51.8175 15.61 51.9655 15.86 52.0655 16.152C52.1695 16.444 52.2215 16.764 52.2215 17.112V21ZM49.3415 20.076C49.4935 20.076 49.6335 20.062 49.7615 20.034C49.8895 20.006 50.0095 19.964 50.1215 19.908C50.2375 19.852 50.3475 19.784 50.4515 19.704C50.5595 19.62 50.6675 19.522 50.7755 19.41V18.372C50.3435 18.392 49.9815 18.43 49.6895 18.486C49.4015 18.538 49.1695 18.606 48.9935 18.69C48.8175 18.774 48.6915 18.872 48.6155 18.984C48.5435 19.096 48.5075 19.218 48.5075 19.35C48.5075 19.61 48.5835 19.796 48.7355 19.908C48.8915 20.02 49.0935 20.076 49.3415 20.076ZM58.0047 16.146C57.9607 16.202 57.9167 16.246 57.8727 16.278C57.8327 16.31 57.7727 16.326 57.6927 16.326C57.6167 16.326 57.5427 16.304 57.4707 16.26C57.3987 16.212 57.3127 16.16 57.2127 16.104C57.1127 16.044 56.9927 15.992 56.8527 15.948C56.7167 15.9 56.5467 15.876 56.3427 15.876C56.0827 15.876 55.8547 15.924 55.6587 16.02C55.4627 16.112 55.2987 16.246 55.1667 16.422C55.0387 16.598 54.9427 16.812 54.8787 17.064C54.8147 17.312 54.7827 17.594 54.7827 17.91C54.7827 18.238 54.8167 18.53 54.8847 18.786C54.9567 19.042 55.0587 19.258 55.1907 19.434C55.3227 19.606 55.4827 19.738 55.6707 19.83C55.8587 19.918 56.0707 19.962 56.3067 19.962C56.5427 19.962 56.7327 19.934 56.8767 19.878C57.0247 19.818 57.1487 19.754 57.2487 19.686C57.3487 19.614 57.4347 19.55 57.5067 19.494C57.5827 19.434 57.6667 19.404 57.7587 19.404C57.8787 19.404 57.9687 19.45 58.0287 19.542L58.4547 20.082C58.2907 20.274 58.1127 20.436 57.9207 20.568C57.7287 20.696 57.5287 20.8 57.3207 20.88C57.1167 20.956 56.9047 21.01 56.6847 21.042C56.4647 21.074 56.2467 21.09 56.0307 21.09C55.6507 21.09 55.2927 21.02 54.9567 20.88C54.6207 20.736 54.3267 20.528 54.0747 20.256C53.8267 19.984 53.6287 19.652 53.4807 19.26C53.3367 18.864 53.2647 18.414 53.2647 17.91C53.2647 17.458 53.3287 17.04 53.4567 16.656C53.5887 16.268 53.7807 15.934 54.0327 15.654C54.2847 15.37 54.5967 15.148 54.9687 14.988C55.3407 14.828 55.7687 14.748 56.2527 14.748C56.7127 14.748 57.1147 14.822 57.4587 14.97C57.8067 15.118 58.1187 15.33 58.3947 15.606L58.0047 16.146ZM61.4195 21.096C60.8875 21.096 60.4775 20.946 60.1895 20.646C59.9015 20.342 59.7575 19.924 59.7575 19.392V15.954H59.1335C59.0535 15.954 58.9835 15.928 58.9235 15.876C58.8675 15.824 58.8395 15.746 58.8395 15.642V15.054L59.8295 14.892L60.1415 13.212C60.1575 13.132 60.1935 13.07 60.2495 13.026C60.3095 12.982 60.3835 12.96 60.4715 12.96H61.2395V14.898H62.8595V15.954H61.2395V19.29C61.2395 19.482 61.2875 19.632 61.3835 19.74C61.4795 19.848 61.6075 19.902 61.7675 19.902C61.8595 19.902 61.9355 19.892 61.9955 19.872C62.0595 19.848 62.1135 19.824 62.1575 19.8C62.2055 19.776 62.2475 19.754 62.2835 19.734C62.3195 19.71 62.3555 19.698 62.3915 19.698C62.4355 19.698 62.4715 19.71 62.4995 19.734C62.5275 19.754 62.5575 19.786 62.5895 19.83L63.0335 20.55C62.8175 20.73 62.5695 20.866 62.2895 20.958C62.0095 21.05 61.7195 21.096 61.4195 21.096ZM65.6161 14.844V21H64.1341V14.844H65.6161ZM65.8381 13.05C65.8381 13.178 65.8121 13.298 65.7601 13.41C65.7081 13.522 65.6381 13.62 65.5501 13.704C65.4661 13.788 65.3661 13.856 65.2501 13.908C65.1341 13.956 65.0101 13.98 64.8781 13.98C64.7501 13.98 64.6281 13.956 64.5121 13.908C64.4001 13.856 64.3021 13.788 64.2181 13.704C64.1341 13.62 64.0661 13.522 64.0141 13.41C63.9661 13.298 63.9421 13.178 63.9421 13.05C63.9421 12.918 63.9661 12.794 64.0141 12.678C64.0661 12.562 64.1341 12.462 64.2181 12.378C64.3021 12.294 64.4001 12.228 64.5121 12.18C64.6281 12.128 64.7501 12.102 64.8781 12.102C65.0101 12.102 65.1341 12.128 65.2501 12.18C65.3661 12.228 65.4661 12.294 65.5501 12.378C65.6381 12.462 65.7081 12.562 65.7601 12.678C65.8121 12.794 65.8381 12.918 65.8381 13.05ZM69.9239 14.748C70.3839 14.748 70.7999 14.822 71.1719 14.97C71.5479 15.118 71.8679 15.328 72.1319 15.6C72.3959 15.872 72.5999 16.204 72.7439 16.596C72.8879 16.988 72.9599 17.426 72.9599 17.91C72.9599 18.398 72.8879 18.838 72.7439 19.23C72.5999 19.622 72.3959 19.956 72.1319 20.232C71.8679 20.508 71.5479 20.72 71.1719 20.868C70.7999 21.016 70.3839 21.09 69.9239 21.09C69.4639 21.09 69.0459 21.016 68.6699 20.868C68.2939 20.72 67.9719 20.508 67.7039 20.232C67.4399 19.956 67.2339 19.622 67.0859 19.23C66.9419 18.838 66.8699 18.398 66.8699 17.91C66.8699 17.426 66.9419 16.988 67.0859 16.596C67.2339 16.204 67.4399 15.872 67.7039 15.6C67.9719 15.328 68.2939 15.118 68.6699 14.97C69.0459 14.822 69.4639 14.748 69.9239 14.748ZM69.9239 19.95C70.4359 19.95 70.8139 19.778 71.0579 19.434C71.3059 19.09 71.4299 18.586 71.4299 17.922C71.4299 17.258 71.3059 16.752 71.0579 16.404C70.8139 16.056 70.4359 15.882 69.9239 15.882C69.4039 15.882 69.0199 16.058 68.7719 16.41C68.5239 16.758 68.3999 17.262 68.3999 17.922C68.3999 18.582 68.5239 19.086 68.7719 19.434C69.0199 19.778 69.4039 19.95 69.9239 19.95ZM74.1162 21V14.844H75.0222C75.2142 14.844 75.3402 14.934 75.4002 15.114L75.5022 15.6C75.6262 15.472 75.7562 15.356 75.8922 15.252C76.0322 15.148 76.1782 15.058 76.3302 14.982C76.4862 14.906 76.6522 14.848 76.8282 14.808C77.0042 14.768 77.1962 14.748 77.4042 14.748C77.7402 14.748 78.0382 14.806 78.2982 14.922C78.5582 15.034 78.7742 15.194 78.9462 15.402C79.1222 15.606 79.2542 15.852 79.3422 16.14C79.4342 16.424 79.4802 16.738 79.4802 17.082V21H77.9982V17.082C77.9982 16.706 77.9102 16.416 77.7342 16.212C77.5622 16.004 77.3022 15.9 76.9542 15.9C76.6982 15.9 76.4582 15.958 76.2342 16.074C76.0102 16.19 75.7982 16.348 75.5982 16.548V21H74.1162ZM84.5905 16.044C84.5505 16.108 84.5085 16.154 84.4645 16.182C84.4205 16.206 84.3645 16.218 84.2965 16.218C84.2245 16.218 84.1465 16.198 84.0625 16.158C83.9825 16.118 83.8885 16.074 83.7805 16.026C83.6725 15.974 83.5485 15.928 83.4085 15.888C83.2725 15.848 83.1105 15.828 82.9225 15.828C82.6305 15.828 82.4005 15.89 82.2325 16.014C82.0645 16.138 81.9805 16.3 81.9805 16.5C81.9805 16.632 82.0225 16.744 82.1065 16.836C82.1945 16.924 82.3085 17.002 82.4485 17.07C82.5925 17.138 82.7545 17.2 82.9345 17.256C83.1145 17.308 83.2985 17.366 83.4865 17.43C83.6745 17.494 83.8585 17.568 84.0385 17.652C84.2185 17.732 84.3785 17.836 84.5185 17.964C84.6625 18.088 84.7765 18.238 84.8605 18.414C84.9485 18.59 84.9925 18.802 84.9925 19.05C84.9925 19.346 84.9385 19.62 84.8305 19.872C84.7225 20.12 84.5645 20.336 84.3565 20.52C84.1485 20.7 83.8905 20.842 83.5825 20.946C83.2785 21.046 82.9285 21.096 82.5325 21.096C82.3205 21.096 82.1125 21.076 81.9085 21.036C81.7085 21 81.5145 20.948 81.3265 20.88C81.1425 20.812 80.9705 20.732 80.8105 20.64C80.6545 20.548 80.5165 20.448 80.3965 20.34L80.7385 19.776C80.7825 19.708 80.8345 19.656 80.8945 19.62C80.9545 19.584 81.0305 19.566 81.1225 19.566C81.2145 19.566 81.3005 19.592 81.3805 19.644C81.4645 19.696 81.5605 19.752 81.6685 19.812C81.7765 19.872 81.9025 19.928 82.0465 19.98C82.1945 20.032 82.3805 20.058 82.6045 20.058C82.7805 20.058 82.9305 20.038 83.0545 19.998C83.1825 19.954 83.2865 19.898 83.3665 19.83C83.4505 19.762 83.5105 19.684 83.5465 19.596C83.5865 19.504 83.6065 19.41 83.6065 19.314C83.6065 19.17 83.5625 19.052 83.4745 18.96C83.3905 18.868 83.2765 18.788 83.1325 18.72C82.9925 18.652 82.8305 18.592 82.6465 18.54C82.4665 18.484 82.2805 18.424 82.0885 18.36C81.9005 18.296 81.7145 18.222 81.5305 18.138C81.3505 18.05 81.1885 17.94 81.0445 17.808C80.9045 17.676 80.7905 17.514 80.7025 17.322C80.6185 17.13 80.5765 16.898 80.5765 16.626C80.5765 16.374 80.6265 16.134 80.7265 15.906C80.8265 15.678 80.9725 15.48 81.1645 15.312C81.3605 15.14 81.6025 15.004 81.8905 14.904C82.1825 14.8 82.5185 14.748 82.8985 14.748C83.3225 14.748 83.7085 14.818 84.0565 14.958C84.4045 15.098 84.6945 15.282 84.9265 15.51L84.5905 16.044Z" fill="white"/>
</svg>
