<svg width="23" height="22" viewBox="0 0 23 22" fill="none" xmlns="http://www.w3.org/2000/svg">
<path fill-rule="evenodd" clip-rule="evenodd" d="M11.8392 12.8332C12.8517 12.8332 13.6725 12.0124 13.6725 10.9998C13.6725 9.98732 12.8517 9.1665 11.8392 9.1665C10.8267 9.1665 10.0059 9.98732 10.0059 10.9998C10.0059 12.0124 10.8267 12.8332 11.8392 12.8332Z" stroke="white" stroke-width="1.22693" stroke-linecap="round" stroke-linejoin="round"/>
<path fill-rule="evenodd" clip-rule="evenodd" d="M19.1722 12.8332C20.1847 12.8332 21.0055 12.0124 21.0055 10.9998C21.0055 9.98732 20.1847 9.1665 19.1722 9.1665C18.1597 9.1665 17.3389 9.98732 17.3389 10.9998C17.3389 12.0124 18.1597 12.8332 19.1722 12.8332Z" stroke="white" stroke-width="1.22693" stroke-linecap="round" stroke-linejoin="round"/>
<path fill-rule="evenodd" clip-rule="evenodd" d="M4.50521 12.8332C5.51773 12.8332 6.33854 12.0124 6.33854 10.9998C6.33854 9.98732 5.51773 9.1665 4.50521 9.1665C3.49269 9.1665 2.67188 9.98732 2.67188 10.9998C2.67188 12.0124 3.49269 12.8332 4.50521 12.8332Z" stroke="white" stroke-width="1.22693" stroke-linecap="round" stroke-linejoin="round"/>
</svg>
