<svg width="18" height="18" viewBox="0 0 18 18" fill="none" xmlns="http://www.w3.org/2000/svg">
<path d="M1.5 12.1365C1.16119 12.1365 0.886537 12.4112 0.886537 12.75C0.886537 13.0888 1.16119 13.3635 1.5 13.3635V12.1365ZM3.75 6.75H3.13654H3.75ZM14.25 6.75H14.8635H14.25ZM10.2975 15.75L10.8281 16.0578C10.9382 15.8681 10.9385 15.6339 10.829 15.4438C10.7195 15.2537 10.5168 15.1366 10.2975 15.1366V15.75ZM7.70246 15.75V15.1366C7.48306 15.1366 7.28037 15.2537 7.17087 15.4438C7.06137 15.6339 7.06173 15.8681 7.17181 16.0578L7.70246 15.75ZM16.5 12.1365H1.5V13.3635H16.5V12.1365ZM1.5 13.3635C3.08145 13.3635 4.36346 12.0814 4.36346 10.5H3.13654C3.13654 11.4038 2.40383 12.1365 1.5 12.1365V13.3635ZM4.36346 10.5V6.75H3.13654V10.5H4.36346ZM4.36346 6.75C4.36346 4.18931 6.43931 2.11346 9 2.11346V0.886537C5.7617 0.886537 3.13654 3.5117 3.13654 6.75H4.36346ZM9 2.11346C11.5607 2.11346 13.6365 4.18931 13.6365 6.75H14.8635C14.8635 3.5117 12.2383 0.886537 9 0.886537V2.11346ZM13.6365 6.75V10.5H14.8635V6.75H13.6365ZM13.6365 10.5C13.6365 12.0814 14.9186 13.3635 16.5 13.3635V12.1365C15.5962 12.1365 14.8635 11.4038 14.8635 10.5H13.6365ZM9.76681 15.4422C9.60821 15.7156 9.31604 15.8839 8.99996 15.8839V17.1108C9.75348 17.1108 10.45 16.7096 10.8281 16.0578L9.76681 15.4422ZM8.99996 15.8839C8.68388 15.8839 8.3917 15.7156 8.2331 15.4422L7.17181 16.0578C7.54991 16.7096 8.24643 17.1108 8.99996 17.1108V15.8839ZM7.70246 16.3635H10.2975V15.1366H7.70246V16.3635Z" fill="#1D1D1D"/>
</svg>
