<svg width="16" height="20" viewBox="0 0 16 20" fill="none" xmlns="http://www.w3.org/2000/svg">
<path d="M11.7342 13.8V12.8667C11.7342 11.8357 10.8985 11 9.86758 11H6.13424C5.10331 11 4.26758 11.8357 4.26758 12.8667V13.8" stroke="#00B87C" stroke-width="1.22693" stroke-linecap="round" stroke-linejoin="round"/>
<path fill-rule="evenodd" clip-rule="evenodd" d="M7.99948 9.13372C9.03041 9.13372 9.86615 8.29799 9.86615 7.26706C9.86615 6.23613 9.03041 5.40039 7.99948 5.40039C6.96855 5.40039 6.13281 6.23613 6.13281 7.26706C6.13281 8.29799 6.96855 9.13372 7.99948 9.13372Z" stroke="#00B87C" stroke-width="1.22693" stroke-linecap="round" stroke-linejoin="round"/>
<path fill-rule="evenodd" clip-rule="evenodd" d="M2 3.72692C2 3.04931 2.54931 2.5 3.22693 2.5H12.7731C13.4507 2.5 14 3.04931 14 3.72692V16.2731C14 16.9507 13.4507 17.5 12.7731 17.5H3.22692C2.54931 17.5 2 16.9507 2 16.2731V3.72692Z" stroke="#00B87C" stroke-width="1.22693" stroke-linecap="round" stroke-linejoin="round"/>
</svg>
