<svg width="119" height="41" viewBox="0 0 119 41" fill="none" xmlns="http://www.w3.org/2000/svg">
<path fill-rule="evenodd" clip-rule="evenodd" d="M6 0C2.68629 0 0 2.68629 0 6V29C0 32.3137 2.68629 35 6 35H53.5979L60.0777 41L66.5574 35H113C116.314 35 119 32.3137 119 29V6C119 2.68629 116.314 0 113 0H6Z" fill="#3A3A3A"/>
<path d="M22.544 16.61V20H20.93V11.324H23.576C24.168 11.324 24.674 11.386 25.094 11.51C25.518 11.63 25.864 11.8 26.132 12.02C26.404 12.24 26.602 12.504 26.726 12.812C26.854 13.116 26.918 13.452 26.918 13.82C26.918 14.112 26.874 14.388 26.786 14.648C26.702 14.908 26.578 15.144 26.414 15.356C26.254 15.568 26.054 15.754 25.814 15.914C25.578 16.074 25.308 16.202 25.004 16.298C25.208 16.414 25.384 16.58 25.532 16.796L27.704 20H26.252C26.112 20 25.992 19.972 25.892 19.916C25.796 19.86 25.714 19.78 25.646 19.676L23.822 16.898C23.754 16.794 23.678 16.72 23.594 16.676C23.514 16.632 23.394 16.61 23.234 16.61H22.544ZM22.544 15.452H23.552C23.856 15.452 24.12 15.414 24.344 15.338C24.572 15.262 24.758 15.158 24.902 15.026C25.05 14.89 25.16 14.73 25.232 14.546C25.304 14.362 25.34 14.16 25.34 13.94C25.34 13.5 25.194 13.162 24.902 12.926C24.614 12.69 24.172 12.572 23.576 12.572H22.544V15.452ZM31.1993 13.748C31.5873 13.748 31.9433 13.81 32.2673 13.934C32.5953 14.058 32.8773 14.24 33.1133 14.48C33.3493 14.716 33.5333 15.008 33.6653 15.356C33.7973 15.7 33.8633 16.094 33.8633 16.538C33.8633 16.65 33.8573 16.744 33.8453 16.82C33.8373 16.892 33.8193 16.95 33.7913 16.994C33.7673 17.034 33.7333 17.064 33.6893 17.084C33.6453 17.1 33.5893 17.108 33.5213 17.108H29.7173C29.7613 17.74 29.9313 18.204 30.2273 18.5C30.5233 18.796 30.9153 18.944 31.4033 18.944C31.6433 18.944 31.8493 18.916 32.0213 18.86C32.1973 18.804 32.3493 18.742 32.4773 18.674C32.6093 18.606 32.7233 18.544 32.8193 18.488C32.9193 18.432 33.0153 18.404 33.1073 18.404C33.1673 18.404 33.2193 18.416 33.2633 18.44C33.3073 18.464 33.3453 18.498 33.3773 18.542L33.8093 19.082C33.6453 19.274 33.4613 19.436 33.2573 19.568C33.0533 19.696 32.8393 19.8 32.6153 19.88C32.3953 19.956 32.1693 20.01 31.9373 20.042C31.7093 20.074 31.4873 20.09 31.2713 20.09C30.8433 20.09 30.4453 20.02 30.0773 19.88C29.7093 19.736 29.3893 19.526 29.1173 19.25C28.8453 18.97 28.6313 18.626 28.4753 18.218C28.3193 17.806 28.2413 17.33 28.2413 16.79C28.2413 16.37 28.3093 15.976 28.4453 15.608C28.5813 15.236 28.7753 14.914 29.0273 14.642C29.2833 14.366 29.5933 14.148 29.9573 13.988C30.3253 13.828 30.7393 13.748 31.1993 13.748ZM31.2293 14.81C30.7973 14.81 30.4593 14.932 30.2153 15.176C29.9713 15.42 29.8153 15.766 29.7473 16.214H32.5313C32.5313 16.022 32.5053 15.842 32.4533 15.674C32.4013 15.502 32.3213 15.352 32.2133 15.224C32.1053 15.096 31.9693 14.996 31.8053 14.924C31.6413 14.848 31.4493 14.81 31.2293 14.81ZM35.0654 22.01V13.844H35.9714C36.0674 13.844 36.1494 13.866 36.2174 13.91C36.2854 13.954 36.3294 14.022 36.3494 14.114L36.4694 14.684C36.7174 14.4 37.0014 14.17 37.3214 13.994C37.6454 13.818 38.0234 13.73 38.4554 13.73C38.7914 13.73 39.0974 13.8 39.3734 13.94C39.6534 14.08 39.8934 14.284 40.0934 14.552C40.2974 14.816 40.4534 15.144 40.5614 15.536C40.6734 15.924 40.7294 16.37 40.7294 16.874C40.7294 17.334 40.6674 17.76 40.5434 18.152C40.4194 18.544 40.2414 18.884 40.0094 19.172C39.7814 19.46 39.5034 19.686 39.1754 19.85C38.8514 20.01 38.4874 20.09 38.0834 20.09C37.7354 20.09 37.4394 20.038 37.1954 19.934C36.9554 19.826 36.7394 19.678 36.5474 19.49V22.01H35.0654ZM37.9454 14.9C37.6374 14.9 37.3734 14.966 37.1534 15.098C36.9374 15.226 36.7354 15.408 36.5474 15.644V18.404C36.7154 18.612 36.8974 18.758 37.0934 18.842C37.2934 18.922 37.5074 18.962 37.7354 18.962C37.9594 18.962 38.1614 18.92 38.3414 18.836C38.5254 18.752 38.6794 18.624 38.8034 18.452C38.9314 18.28 39.0294 18.064 39.0974 17.804C39.1654 17.54 39.1994 17.23 39.1994 16.874C39.1994 16.514 39.1694 16.21 39.1094 15.962C39.0534 15.71 38.9714 15.506 38.8634 15.35C38.7554 15.194 38.6234 15.08 38.4674 15.008C38.3154 14.936 38.1414 14.9 37.9454 14.9ZM43.4286 11.084V20H41.9466V11.084H43.4286ZM47.2924 21.692C47.2484 21.796 47.1904 21.874 47.1184 21.926C47.0504 21.982 46.9444 22.01 46.8004 22.01H45.6964L46.8484 19.544L44.3584 13.844H45.6544C45.7744 13.844 45.8664 13.872 45.9304 13.928C45.9944 13.984 46.0424 14.048 46.0744 14.12L47.3884 17.312C47.4324 17.416 47.4704 17.524 47.5024 17.636C47.5344 17.748 47.5624 17.86 47.5864 17.972C47.6184 17.856 47.6524 17.744 47.6884 17.636C47.7284 17.528 47.7704 17.418 47.8144 17.306L49.0504 14.12C49.0824 14.04 49.1344 13.974 49.2064 13.922C49.2824 13.87 49.3664 13.844 49.4584 13.844H50.6464L47.2924 21.692ZM55.4052 13.844V20H53.9232V13.844H55.4052ZM55.6272 12.05C55.6272 12.178 55.6012 12.298 55.5492 12.41C55.4972 12.522 55.4272 12.62 55.3392 12.704C55.2552 12.788 55.1552 12.856 55.0392 12.908C54.9232 12.956 54.7992 12.98 54.6672 12.98C54.5392 12.98 54.4172 12.956 54.3012 12.908C54.1892 12.856 54.0912 12.788 54.0072 12.704C53.9232 12.62 53.8552 12.522 53.8032 12.41C53.7552 12.298 53.7312 12.178 53.7312 12.05C53.7312 11.918 53.7552 11.794 53.8032 11.678C53.8552 11.562 53.9232 11.462 54.0072 11.378C54.0912 11.294 54.1892 11.228 54.3012 11.18C54.4172 11.128 54.5392 11.102 54.6672 11.102C54.7992 11.102 54.9232 11.128 55.0392 11.18C55.1552 11.228 55.2552 11.294 55.3392 11.378C55.4272 11.462 55.4972 11.562 55.5492 11.678C55.6012 11.794 55.6272 11.918 55.6272 12.05ZM57.085 20V13.844H57.991C58.183 13.844 58.309 13.934 58.369 14.114L58.471 14.6C58.595 14.472 58.725 14.356 58.861 14.252C59.001 14.148 59.147 14.058 59.299 13.982C59.455 13.906 59.621 13.848 59.797 13.808C59.973 13.768 60.165 13.748 60.373 13.748C60.709 13.748 61.007 13.806 61.267 13.922C61.527 14.034 61.743 14.194 61.915 14.402C62.091 14.606 62.223 14.852 62.311 15.14C62.403 15.424 62.449 15.738 62.449 16.082V20H60.967V16.082C60.967 15.706 60.879 15.416 60.703 15.212C60.531 15.004 60.271 14.9 59.923 14.9C59.667 14.9 59.427 14.958 59.203 15.074C58.979 15.19 58.767 15.348 58.567 15.548V20H57.085ZM68.2476 20.096C67.7156 20.096 67.3056 19.946 67.0176 19.646C66.7296 19.342 66.5856 18.924 66.5856 18.392V14.954H65.9616C65.8816 14.954 65.8116 14.928 65.7516 14.876C65.6956 14.824 65.6676 14.746 65.6676 14.642V14.054L66.6576 13.892L66.9696 12.212C66.9856 12.132 67.0216 12.07 67.0776 12.026C67.1376 11.982 67.2116 11.96 67.2996 11.96H68.0676V13.898H69.6876V14.954H68.0676V18.29C68.0676 18.482 68.1156 18.632 68.2116 18.74C68.3076 18.848 68.4356 18.902 68.5956 18.902C68.6876 18.902 68.7636 18.892 68.8236 18.872C68.8876 18.848 68.9416 18.824 68.9856 18.8C69.0336 18.776 69.0756 18.754 69.1116 18.734C69.1476 18.71 69.1836 18.698 69.2196 18.698C69.2636 18.698 69.2996 18.71 69.3276 18.734C69.3556 18.754 69.3856 18.786 69.4176 18.83L69.8616 19.55C69.6456 19.73 69.3976 19.866 69.1176 19.958C68.8376 20.05 68.5476 20.096 68.2476 20.096ZM70.8662 20V11.084H72.3482V14.51C72.5882 14.282 72.8522 14.098 73.1402 13.958C73.4282 13.818 73.7662 13.748 74.1542 13.748C74.4902 13.748 74.7882 13.806 75.0482 13.922C75.3082 14.034 75.5242 14.194 75.6962 14.402C75.8722 14.606 76.0042 14.852 76.0922 15.14C76.1842 15.424 76.2302 15.738 76.2302 16.082V20H74.7482V16.082C74.7482 15.706 74.6602 15.416 74.4842 15.212C74.3122 15.004 74.0522 14.9 73.7042 14.9C73.4482 14.9 73.2082 14.958 72.9842 15.074C72.7602 15.19 72.5482 15.348 72.3482 15.548V20H70.8662ZM77.6865 20V13.844H78.5565C78.7085 13.844 78.8145 13.872 78.8745 13.928C78.9345 13.984 78.9745 14.08 78.9945 14.216L79.0845 14.96C79.3045 14.58 79.5625 14.28 79.8585 14.06C80.1545 13.84 80.4865 13.73 80.8545 13.73C81.1585 13.73 81.4105 13.8 81.6105 13.94L81.4185 15.05C81.4065 15.122 81.3805 15.174 81.3405 15.206C81.3005 15.234 81.2465 15.248 81.1785 15.248C81.1185 15.248 81.0365 15.234 80.9325 15.206C80.8285 15.178 80.6905 15.164 80.5185 15.164C80.2105 15.164 79.9465 15.25 79.7265 15.422C79.5065 15.59 79.3205 15.838 79.1685 16.166V20H77.6865ZM85.129 13.748C85.517 13.748 85.873 13.81 86.197 13.934C86.525 14.058 86.807 14.24 87.043 14.48C87.279 14.716 87.463 15.008 87.595 15.356C87.727 15.7 87.793 16.094 87.793 16.538C87.793 16.65 87.787 16.744 87.775 16.82C87.767 16.892 87.749 16.95 87.721 16.994C87.697 17.034 87.663 17.064 87.619 17.084C87.575 17.1 87.519 17.108 87.451 17.108H83.647C83.691 17.74 83.861 18.204 84.157 18.5C84.453 18.796 84.845 18.944 85.333 18.944C85.573 18.944 85.779 18.916 85.951 18.86C86.127 18.804 86.279 18.742 86.407 18.674C86.539 18.606 86.653 18.544 86.749 18.488C86.849 18.432 86.945 18.404 87.037 18.404C87.097 18.404 87.149 18.416 87.193 18.44C87.237 18.464 87.275 18.498 87.307 18.542L87.739 19.082C87.575 19.274 87.391 19.436 87.187 19.568C86.983 19.696 86.769 19.8 86.545 19.88C86.325 19.956 86.099 20.01 85.867 20.042C85.639 20.074 85.417 20.09 85.201 20.09C84.773 20.09 84.375 20.02 84.007 19.88C83.639 19.736 83.319 19.526 83.047 19.25C82.775 18.97 82.561 18.626 82.405 18.218C82.249 17.806 82.171 17.33 82.171 16.79C82.171 16.37 82.239 15.976 82.375 15.608C82.511 15.236 82.705 14.914 82.957 14.642C83.213 14.366 83.523 14.148 83.887 13.988C84.255 13.828 84.669 13.748 85.129 13.748ZM85.159 14.81C84.727 14.81 84.389 14.932 84.145 15.176C83.901 15.42 83.745 15.766 83.677 16.214H86.461C86.461 16.022 86.435 15.842 86.383 15.674C86.331 15.502 86.251 15.352 86.143 15.224C86.035 15.096 85.899 14.996 85.735 14.924C85.571 14.848 85.379 14.81 85.159 14.81ZM93.8191 20H93.1531C93.0131 20 92.9031 19.98 92.8231 19.94C92.7431 19.896 92.6831 19.81 92.6431 19.682L92.5111 19.244C92.3551 19.384 92.2011 19.508 92.0491 19.616C91.9011 19.72 91.7471 19.808 91.5871 19.88C91.4271 19.952 91.2571 20.006 91.0771 20.042C90.8971 20.078 90.6971 20.096 90.4771 20.096C90.2171 20.096 89.9771 20.062 89.7571 19.994C89.5371 19.922 89.3471 19.816 89.1871 19.676C89.0311 19.536 88.9091 19.362 88.8211 19.154C88.7331 18.946 88.6891 18.704 88.6891 18.428C88.6891 18.196 88.7491 17.968 88.8691 17.744C88.9931 17.516 89.1971 17.312 89.4811 17.132C89.7651 16.948 90.1431 16.796 90.6151 16.676C91.0871 16.556 91.6731 16.488 92.3731 16.472V16.112C92.3731 15.7 92.2851 15.396 92.1091 15.2C91.9371 15 91.6851 14.9 91.3531 14.9C91.1131 14.9 90.9131 14.928 90.7531 14.984C90.5931 15.04 90.4531 15.104 90.3331 15.176C90.2171 15.244 90.1091 15.306 90.0091 15.362C89.9091 15.418 89.7991 15.446 89.6791 15.446C89.5791 15.446 89.4931 15.42 89.4211 15.368C89.3491 15.316 89.2911 15.252 89.2471 15.176L88.9771 14.702C89.6851 14.054 90.5391 13.73 91.5391 13.73C91.8991 13.73 92.2191 13.79 92.4991 13.91C92.7831 14.026 93.0231 14.19 93.2191 14.402C93.4151 14.61 93.5631 14.86 93.6631 15.152C93.7671 15.444 93.8191 15.764 93.8191 16.112V20ZM90.9391 19.076C91.0911 19.076 91.2311 19.062 91.3591 19.034C91.4871 19.006 91.6071 18.964 91.7191 18.908C91.8351 18.852 91.9451 18.784 92.0491 18.704C92.1571 18.62 92.2651 18.522 92.3731 18.41V17.372C91.9411 17.392 91.5791 17.43 91.2871 17.486C90.9991 17.538 90.7671 17.606 90.5911 17.69C90.4151 17.774 90.2891 17.872 90.2131 17.984C90.1411 18.096 90.1051 18.218 90.1051 18.35C90.1051 18.61 90.1811 18.796 90.3331 18.908C90.4891 19.02 90.6911 19.076 90.9391 19.076ZM99.6084 20C99.4164 20 99.2904 19.91 99.2304 19.73L99.1104 19.136C98.9824 19.28 98.8484 19.41 98.7084 19.526C98.5684 19.642 98.4164 19.742 98.2524 19.826C98.0924 19.91 97.9184 19.974 97.7304 20.018C97.5464 20.066 97.3464 20.09 97.1304 20.09C96.7944 20.09 96.4864 20.02 96.2064 19.88C95.9264 19.74 95.6844 19.538 95.4804 19.274C95.2804 19.006 95.1244 18.676 95.0124 18.284C94.9044 17.892 94.8504 17.444 94.8504 16.94C94.8504 16.484 94.9124 16.06 95.0364 15.668C95.1604 15.276 95.3384 14.936 95.5704 14.648C95.8024 14.36 96.0804 14.136 96.4044 13.976C96.7284 13.812 97.0924 13.73 97.4964 13.73C97.8404 13.73 98.1344 13.786 98.3784 13.898C98.6224 14.006 98.8404 14.152 99.0324 14.336V11.084H100.514V20H99.6084ZM97.6344 18.914C97.9424 18.914 98.2044 18.85 98.4204 18.722C98.6364 18.594 98.8404 18.412 99.0324 18.176V15.416C98.8644 15.212 98.6804 15.068 98.4804 14.984C98.2844 14.9 98.0724 14.858 97.8444 14.858C97.6204 14.858 97.4164 14.9 97.2324 14.984C97.0524 15.068 96.8984 15.196 96.7704 15.368C96.6464 15.536 96.5504 15.752 96.4824 16.016C96.4144 16.276 96.3804 16.584 96.3804 16.94C96.3804 17.3 96.4084 17.606 96.4644 17.858C96.5244 18.106 96.6084 18.31 96.7164 18.47C96.8244 18.626 96.9564 18.74 97.1124 18.812C97.2684 18.88 97.4424 18.914 97.6344 18.914Z" fill="white"/>
</svg>
