<svg width="15" height="12" viewBox="0 0 15 12" fill="none" xmlns="http://www.w3.org/2000/svg">
<path d="M13.5 5.99023L2 0.990234H1.5L4 5.99023L1.5 10.9902L13.5 5.99023Z" fill="white"/>
<path fill-rule="evenodd" clip-rule="evenodd" d="M14.6387 6.06274C14.6387 6.30644 14.5049 6.52416 14.3039 6.60773L1.45626 11.9482C1.255 12.0318 1.02929 11.9632 0.891454 11.7765C0.753621 11.5897 0.733116 11.3247 0.840145 11.1134L3.39812 6.06274L0.840145 1.01211C0.733116 0.800787 0.753621 0.535797 0.891454 0.349036C1.02929 0.162275 1.255 0.0936422 1.45626 0.177299L14.3039 5.51776C14.5049 5.60133 14.6387 5.81905 14.6387 6.06274ZM2.42276 1.81428L4.42768 5.77291C4.51852 5.95229 4.51852 6.1732 4.42768 6.35258L2.42276 10.3112L12.6434 6.06274L2.42276 1.81428Z" fill="white"/>
</svg>
