<svg width="17" height="18" viewBox="0 0 17 18" fill="none" xmlns="http://www.w3.org/2000/svg">
<path fill-rule="evenodd" clip-rule="evenodd" d="M15.7499 12.6901V14.9401C15.7516 15.3624 15.5752 15.7659 15.264 16.0515C14.9527 16.337 14.5355 16.4781 14.1149 16.4401C11.807 16.1893 9.59014 15.4007 7.64239 14.1376C5.83027 12.9861 4.2939 11.4497 3.14239 9.63757C1.87488 7.68098 1.08608 5.45332 0.839894 3.13507C0.801999 2.71573 0.942098 2.29976 1.22597 1.98879C1.50984 1.67782 1.91134 1.50047 2.33239 1.50007H4.58239C5.33529 1.49266 5.97702 2.04455 6.08239 2.79007C6.17736 3.51012 6.35348 4.21712 6.60739 4.89757C6.81345 5.44573 6.68166 6.06368 6.26989 6.48007L5.31739 7.43257C6.38506 9.31023 7.93973 10.8649 9.81739 11.9326L10.7699 10.9801C11.1863 10.5683 11.8042 10.4365 12.3524 10.6426C13.0328 10.8965 13.7398 11.0726 14.4599 11.1676C15.2141 11.274 15.7688 11.9287 15.7499 12.6901Z" stroke="white" stroke-width="1.22693" stroke-linecap="round" stroke-linejoin="round"/>
</svg>
