<svg width="119" height="41" viewBox="0 0 119 41" fill="none" xmlns="http://www.w3.org/2000/svg">
<path fill-rule="evenodd" clip-rule="evenodd" d="M6 0C2.68629 0 0 2.68629 0 6V29C0 32.3137 2.68629 35 6 35H53.5979L60.0777 41L66.5574 35H113C116.314 35 119 32.3137 119 29V6C119 2.68629 116.314 0 113 0H6Z" fill="#3A3A3A"/>
<path d="M21.526 12.902C21.482 12.99 21.43 13.052 21.37 13.088C21.314 13.124 21.246 13.142 21.166 13.142C21.086 13.142 20.996 13.112 20.896 13.052C20.796 12.988 20.678 12.918 20.542 12.842C20.406 12.766 20.246 12.698 20.062 12.638C19.882 12.574 19.668 12.542 19.42 12.542C19.196 12.542 19 12.57 18.832 12.626C18.668 12.678 18.528 12.752 18.412 12.848C18.3 12.944 18.216 13.06 18.16 13.196C18.104 13.328 18.076 13.474 18.076 13.634C18.076 13.838 18.132 14.008 18.244 14.144C18.36 14.28 18.512 14.396 18.7 14.492C18.888 14.588 19.102 14.674 19.342 14.75C19.582 14.826 19.826 14.908 20.074 14.996C20.326 15.08 20.572 15.18 20.812 15.296C21.052 15.408 21.266 15.552 21.454 15.728C21.642 15.9 21.792 16.112 21.904 16.364C22.02 16.616 22.078 16.922 22.078 17.282C22.078 17.674 22.01 18.042 21.874 18.386C21.742 18.726 21.546 19.024 21.286 19.28C21.03 19.532 20.716 19.732 20.344 19.88C19.972 20.024 19.546 20.096 19.066 20.096C18.79 20.096 18.518 20.068 18.25 20.012C17.982 19.96 17.724 19.884 17.476 19.784C17.232 19.684 17.002 19.564 16.786 19.424C16.574 19.284 16.384 19.128 16.216 18.956L16.684 18.182C16.728 18.126 16.78 18.08 16.84 18.044C16.904 18.004 16.974 17.984 17.05 17.984C17.15 17.984 17.258 18.026 17.374 18.11C17.49 18.19 17.626 18.28 17.782 18.38C17.942 18.48 18.128 18.572 18.34 18.656C18.556 18.736 18.814 18.776 19.114 18.776C19.574 18.776 19.93 18.668 20.182 18.452C20.434 18.232 20.56 17.918 20.56 17.51C20.56 17.282 20.502 17.096 20.386 16.952C20.274 16.808 20.124 16.688 19.936 16.592C19.748 16.492 19.534 16.408 19.294 16.34C19.054 16.272 18.81 16.198 18.562 16.118C18.314 16.038 18.07 15.942 17.83 15.83C17.59 15.718 17.376 15.572 17.188 15.392C17 15.212 16.848 14.988 16.732 14.72C16.62 14.448 16.564 14.114 16.564 13.718C16.564 13.402 16.626 13.094 16.75 12.794C16.878 12.494 17.062 12.228 17.302 11.996C17.546 11.764 17.844 11.578 18.196 11.438C18.548 11.298 18.95 11.228 19.402 11.228C19.914 11.228 20.386 11.308 20.818 11.468C21.25 11.628 21.618 11.852 21.922 12.14L21.526 12.902ZM23.2256 20V11.084H24.7076V14.51C24.9476 14.282 25.2116 14.098 25.4996 13.958C25.7876 13.818 26.1256 13.748 26.5136 13.748C26.8496 13.748 27.1476 13.806 27.4076 13.922C27.6676 14.034 27.8836 14.194 28.0556 14.402C28.2316 14.606 28.3636 14.852 28.4516 15.14C28.5436 15.424 28.5896 15.738 28.5896 16.082V20H27.1076V16.082C27.1076 15.706 27.0196 15.416 26.8436 15.212C26.6716 15.004 26.4116 14.9 26.0636 14.9C25.8076 14.9 25.5676 14.958 25.3436 15.074C25.1196 15.19 24.9076 15.348 24.7076 15.548V20H23.2256ZM34.8699 20H34.2039C34.0639 20 33.9539 19.98 33.8739 19.94C33.7939 19.896 33.7339 19.81 33.6939 19.682L33.5619 19.244C33.4059 19.384 33.2519 19.508 33.0999 19.616C32.9519 19.72 32.7979 19.808 32.6379 19.88C32.4779 19.952 32.3079 20.006 32.1279 20.042C31.9479 20.078 31.7479 20.096 31.5279 20.096C31.2679 20.096 31.0279 20.062 30.8079 19.994C30.5879 19.922 30.3979 19.816 30.2379 19.676C30.0819 19.536 29.9599 19.362 29.8719 19.154C29.7839 18.946 29.7399 18.704 29.7399 18.428C29.7399 18.196 29.7999 17.968 29.9199 17.744C30.0439 17.516 30.2479 17.312 30.5319 17.132C30.8159 16.948 31.1939 16.796 31.6659 16.676C32.1379 16.556 32.7239 16.488 33.4239 16.472V16.112C33.4239 15.7 33.3359 15.396 33.1599 15.2C32.9879 15 32.7359 14.9 32.4039 14.9C32.1639 14.9 31.9639 14.928 31.8039 14.984C31.6439 15.04 31.5039 15.104 31.3839 15.176C31.2679 15.244 31.1599 15.306 31.0599 15.362C30.9599 15.418 30.8499 15.446 30.7299 15.446C30.6299 15.446 30.5439 15.42 30.4719 15.368C30.3999 15.316 30.3419 15.252 30.2979 15.176L30.0279 14.702C30.7359 14.054 31.5899 13.73 32.5899 13.73C32.9499 13.73 33.2699 13.79 33.5499 13.91C33.8339 14.026 34.0739 14.19 34.2699 14.402C34.4659 14.61 34.6139 14.86 34.7139 15.152C34.8179 15.444 34.8699 15.764 34.8699 16.112V20ZM31.9899 19.076C32.1419 19.076 32.2819 19.062 32.4099 19.034C32.5379 19.006 32.6579 18.964 32.7699 18.908C32.8859 18.852 32.9959 18.784 33.0999 18.704C33.2079 18.62 33.3159 18.522 33.4239 18.41V17.372C32.9919 17.392 32.6299 17.43 32.3379 17.486C32.0499 17.538 31.8179 17.606 31.6419 17.69C31.4659 17.774 31.3399 17.872 31.2639 17.984C31.1919 18.096 31.1559 18.218 31.1559 18.35C31.1559 18.61 31.2319 18.796 31.3839 18.908C31.5399 19.02 31.7419 19.076 31.9899 19.076ZM36.3272 20V13.844H37.1972C37.3492 13.844 37.4552 13.872 37.5152 13.928C37.5752 13.984 37.6152 14.08 37.6352 14.216L37.7252 14.96C37.9452 14.58 38.2032 14.28 38.4992 14.06C38.7952 13.84 39.1272 13.73 39.4952 13.73C39.7992 13.73 40.0512 13.8 40.2512 13.94L40.0592 15.05C40.0472 15.122 40.0212 15.174 39.9812 15.206C39.9412 15.234 39.8872 15.248 39.8192 15.248C39.7592 15.248 39.6772 15.234 39.5732 15.206C39.4692 15.178 39.3312 15.164 39.1592 15.164C38.8512 15.164 38.5872 15.25 38.3672 15.422C38.1472 15.59 37.9612 15.838 37.8092 16.166V20H36.3272ZM43.7696 13.748C44.1576 13.748 44.5136 13.81 44.8376 13.934C45.1656 14.058 45.4476 14.24 45.6836 14.48C45.9196 14.716 46.1036 15.008 46.2356 15.356C46.3676 15.7 46.4336 16.094 46.4336 16.538C46.4336 16.65 46.4276 16.744 46.4156 16.82C46.4076 16.892 46.3896 16.95 46.3616 16.994C46.3376 17.034 46.3036 17.064 46.2596 17.084C46.2156 17.1 46.1596 17.108 46.0916 17.108H42.2876C42.3316 17.74 42.5016 18.204 42.7976 18.5C43.0936 18.796 43.4856 18.944 43.9736 18.944C44.2136 18.944 44.4196 18.916 44.5916 18.86C44.7676 18.804 44.9196 18.742 45.0476 18.674C45.1796 18.606 45.2936 18.544 45.3896 18.488C45.4896 18.432 45.5856 18.404 45.6776 18.404C45.7376 18.404 45.7896 18.416 45.8336 18.44C45.8776 18.464 45.9156 18.498 45.9476 18.542L46.3796 19.082C46.2156 19.274 46.0316 19.436 45.8276 19.568C45.6236 19.696 45.4096 19.8 45.1856 19.88C44.9656 19.956 44.7396 20.01 44.5076 20.042C44.2796 20.074 44.0576 20.09 43.8416 20.09C43.4136 20.09 43.0156 20.02 42.6476 19.88C42.2796 19.736 41.9596 19.526 41.6876 19.25C41.4156 18.97 41.2016 18.626 41.0456 18.218C40.8896 17.806 40.8116 17.33 40.8116 16.79C40.8116 16.37 40.8796 15.976 41.0156 15.608C41.1516 15.236 41.3456 14.914 41.5976 14.642C41.8536 14.366 42.1636 14.148 42.5276 13.988C42.8956 13.828 43.3096 13.748 43.7696 13.748ZM43.7996 14.81C43.3676 14.81 43.0296 14.932 42.7856 15.176C42.5416 15.42 42.3856 15.766 42.3176 16.214H45.1016C45.1016 16.022 45.0756 15.842 45.0236 15.674C44.9716 15.502 44.8916 15.352 44.7836 15.224C44.6756 15.096 44.5396 14.996 44.3756 14.924C44.2116 14.848 44.0196 14.81 43.7996 14.81ZM49.9561 20V13.844H50.8621C51.0541 13.844 51.1801 13.934 51.2401 14.114L51.3361 14.57C51.4441 14.45 51.5561 14.34 51.6721 14.24C51.7921 14.14 51.9181 14.054 52.0501 13.982C52.1861 13.91 52.3301 13.854 52.4821 13.814C52.6381 13.77 52.8081 13.748 52.9921 13.748C53.3801 13.748 53.6981 13.854 53.9461 14.066C54.1981 14.274 54.3861 14.552 54.5101 14.9C54.6061 14.696 54.7261 14.522 54.8701 14.378C55.0141 14.23 55.1721 14.11 55.3441 14.018C55.5161 13.926 55.6981 13.858 55.8901 13.814C56.0861 13.77 56.2821 13.748 56.4781 13.748C56.8181 13.748 57.1201 13.8 57.3841 13.904C57.6481 14.008 57.8701 14.16 58.0501 14.36C58.2301 14.56 58.3661 14.804 58.4581 15.092C58.5541 15.38 58.6021 15.71 58.6021 16.082V20H57.1201V16.082C57.1201 15.69 57.0341 15.396 56.8621 15.2C56.6901 15 56.4381 14.9 56.1061 14.9C55.9541 14.9 55.8121 14.926 55.6801 14.978C55.5521 15.03 55.4381 15.106 55.3381 15.206C55.2421 15.302 55.1661 15.424 55.1101 15.572C55.0541 15.72 55.0261 15.89 55.0261 16.082V20H53.5381V16.082C53.5381 15.67 53.4541 15.37 53.2861 15.182C53.1221 14.994 52.8781 14.9 52.5541 14.9C52.3421 14.9 52.1421 14.954 51.9541 15.062C51.7701 15.166 51.5981 15.31 51.4381 15.494V20H49.9561ZM62.6016 13.748C62.9896 13.748 63.3456 13.81 63.6696 13.934C63.9976 14.058 64.2796 14.24 64.5156 14.48C64.7516 14.716 64.9356 15.008 65.0676 15.356C65.1996 15.7 65.2656 16.094 65.2656 16.538C65.2656 16.65 65.2596 16.744 65.2476 16.82C65.2396 16.892 65.2216 16.95 65.1936 16.994C65.1696 17.034 65.1356 17.064 65.0916 17.084C65.0476 17.1 64.9916 17.108 64.9236 17.108H61.1196C61.1636 17.74 61.3336 18.204 61.6296 18.5C61.9256 18.796 62.3176 18.944 62.8056 18.944C63.0456 18.944 63.2516 18.916 63.4236 18.86C63.5996 18.804 63.7516 18.742 63.8796 18.674C64.0116 18.606 64.1256 18.544 64.2216 18.488C64.3216 18.432 64.4176 18.404 64.5096 18.404C64.5696 18.404 64.6216 18.416 64.6656 18.44C64.7096 18.464 64.7476 18.498 64.7796 18.542L65.2116 19.082C65.0476 19.274 64.8636 19.436 64.6596 19.568C64.4556 19.696 64.2416 19.8 64.0176 19.88C63.7976 19.956 63.5716 20.01 63.3396 20.042C63.1116 20.074 62.8896 20.09 62.6736 20.09C62.2456 20.09 61.8476 20.02 61.4796 19.88C61.1116 19.736 60.7916 19.526 60.5196 19.25C60.2476 18.97 60.0336 18.626 59.8776 18.218C59.7216 17.806 59.6436 17.33 59.6436 16.79C59.6436 16.37 59.7116 15.976 59.8476 15.608C59.9836 15.236 60.1776 14.914 60.4296 14.642C60.6856 14.366 60.9956 14.148 61.3596 13.988C61.7276 13.828 62.1416 13.748 62.6016 13.748ZM62.6316 14.81C62.1996 14.81 61.8616 14.932 61.6176 15.176C61.3736 15.42 61.2176 15.766 61.1496 16.214H63.9336C63.9336 16.022 63.9076 15.842 63.8556 15.674C63.8036 15.502 63.7236 15.352 63.6156 15.224C63.5076 15.096 63.3716 14.996 63.2076 14.924C63.0436 14.848 62.8516 14.81 62.6316 14.81ZM70.1218 15.044C70.0818 15.108 70.0398 15.154 69.9958 15.182C69.9518 15.206 69.8958 15.218 69.8278 15.218C69.7558 15.218 69.6778 15.198 69.5938 15.158C69.5138 15.118 69.4198 15.074 69.3118 15.026C69.2038 14.974 69.0798 14.928 68.9398 14.888C68.8038 14.848 68.6418 14.828 68.4538 14.828C68.1618 14.828 67.9318 14.89 67.7638 15.014C67.5958 15.138 67.5118 15.3 67.5118 15.5C67.5118 15.632 67.5538 15.744 67.6378 15.836C67.7258 15.924 67.8398 16.002 67.9798 16.07C68.1238 16.138 68.2858 16.2 68.4658 16.256C68.6458 16.308 68.8298 16.366 69.0178 16.43C69.2058 16.494 69.3898 16.568 69.5698 16.652C69.7498 16.732 69.9098 16.836 70.0498 16.964C70.1938 17.088 70.3078 17.238 70.3918 17.414C70.4798 17.59 70.5238 17.802 70.5238 18.05C70.5238 18.346 70.4698 18.62 70.3618 18.872C70.2538 19.12 70.0958 19.336 69.8878 19.52C69.6798 19.7 69.4218 19.842 69.1138 19.946C68.8098 20.046 68.4598 20.096 68.0638 20.096C67.8518 20.096 67.6438 20.076 67.4398 20.036C67.2398 20 67.0458 19.948 66.8578 19.88C66.6738 19.812 66.5018 19.732 66.3418 19.64C66.1858 19.548 66.0478 19.448 65.9278 19.34L66.2698 18.776C66.3138 18.708 66.3658 18.656 66.4258 18.62C66.4858 18.584 66.5618 18.566 66.6538 18.566C66.7458 18.566 66.8318 18.592 66.9118 18.644C66.9958 18.696 67.0918 18.752 67.1998 18.812C67.3078 18.872 67.4338 18.928 67.5778 18.98C67.7258 19.032 67.9118 19.058 68.1358 19.058C68.3118 19.058 68.4618 19.038 68.5858 18.998C68.7138 18.954 68.8178 18.898 68.8978 18.83C68.9818 18.762 69.0418 18.684 69.0778 18.596C69.1178 18.504 69.1378 18.41 69.1378 18.314C69.1378 18.17 69.0938 18.052 69.0058 17.96C68.9218 17.868 68.8078 17.788 68.6638 17.72C68.5238 17.652 68.3618 17.592 68.1778 17.54C67.9978 17.484 67.8118 17.424 67.6198 17.36C67.4318 17.296 67.2458 17.222 67.0618 17.138C66.8818 17.05 66.7198 16.94 66.5758 16.808C66.4358 16.676 66.3218 16.514 66.2338 16.322C66.1498 16.13 66.1078 15.898 66.1078 15.626C66.1078 15.374 66.1578 15.134 66.2578 14.906C66.3578 14.678 66.5038 14.48 66.6958 14.312C66.8918 14.14 67.1338 14.004 67.4218 13.904C67.7138 13.8 68.0498 13.748 68.4298 13.748C68.8538 13.748 69.2398 13.818 69.5878 13.958C69.9358 14.098 70.2258 14.282 70.4578 14.51L70.1218 15.044ZM75.3601 15.044C75.3201 15.108 75.2781 15.154 75.2341 15.182C75.1901 15.206 75.1341 15.218 75.0661 15.218C74.9941 15.218 74.9161 15.198 74.8321 15.158C74.7521 15.118 74.6581 15.074 74.5501 15.026C74.4421 14.974 74.3181 14.928 74.1781 14.888C74.0421 14.848 73.8801 14.828 73.6921 14.828C73.4001 14.828 73.1701 14.89 73.0021 15.014C72.8341 15.138 72.7501 15.3 72.7501 15.5C72.7501 15.632 72.7921 15.744 72.8761 15.836C72.9641 15.924 73.0781 16.002 73.2181 16.07C73.3621 16.138 73.5241 16.2 73.7041 16.256C73.8841 16.308 74.0681 16.366 74.2561 16.43C74.4441 16.494 74.6281 16.568 74.8081 16.652C74.9881 16.732 75.1481 16.836 75.2881 16.964C75.4321 17.088 75.5461 17.238 75.6301 17.414C75.7181 17.59 75.7621 17.802 75.7621 18.05C75.7621 18.346 75.7081 18.62 75.6001 18.872C75.4921 19.12 75.3341 19.336 75.1261 19.52C74.9181 19.7 74.6601 19.842 74.3521 19.946C74.0481 20.046 73.6981 20.096 73.3021 20.096C73.0901 20.096 72.8821 20.076 72.6781 20.036C72.4781 20 72.2841 19.948 72.0961 19.88C71.9121 19.812 71.7401 19.732 71.5801 19.64C71.4241 19.548 71.2861 19.448 71.1661 19.34L71.5081 18.776C71.5521 18.708 71.6041 18.656 71.6641 18.62C71.7241 18.584 71.8001 18.566 71.8921 18.566C71.9841 18.566 72.0701 18.592 72.1501 18.644C72.2341 18.696 72.3301 18.752 72.4381 18.812C72.5461 18.872 72.6721 18.928 72.8161 18.98C72.9641 19.032 73.1501 19.058 73.3741 19.058C73.5501 19.058 73.7001 19.038 73.8241 18.998C73.9521 18.954 74.0561 18.898 74.1361 18.83C74.2201 18.762 74.2801 18.684 74.3161 18.596C74.3561 18.504 74.3761 18.41 74.3761 18.314C74.3761 18.17 74.3321 18.052 74.2441 17.96C74.1601 17.868 74.0461 17.788 73.9021 17.72C73.7621 17.652 73.6001 17.592 73.4161 17.54C73.2361 17.484 73.0501 17.424 72.8581 17.36C72.6701 17.296 72.4841 17.222 72.3001 17.138C72.1201 17.05 71.9581 16.94 71.8141 16.808C71.6741 16.676 71.5601 16.514 71.4721 16.322C71.3881 16.13 71.3461 15.898 71.3461 15.626C71.3461 15.374 71.3961 15.134 71.4961 14.906C71.5961 14.678 71.7421 14.48 71.9341 14.312C72.1301 14.14 72.3721 14.004 72.6601 13.904C72.9521 13.8 73.2881 13.748 73.6681 13.748C74.0921 13.748 74.4781 13.818 74.8261 13.958C75.1741 14.098 75.4641 14.282 75.6961 14.51L75.3601 15.044ZM81.7683 20H81.1023C80.9623 20 80.8523 19.98 80.7723 19.94C80.6923 19.896 80.6323 19.81 80.5923 19.682L80.4603 19.244C80.3043 19.384 80.1503 19.508 79.9983 19.616C79.8503 19.72 79.6963 19.808 79.5363 19.88C79.3763 19.952 79.2063 20.006 79.0263 20.042C78.8463 20.078 78.6463 20.096 78.4263 20.096C78.1663 20.096 77.9263 20.062 77.7063 19.994C77.4863 19.922 77.2963 19.816 77.1363 19.676C76.9803 19.536 76.8583 19.362 76.7703 19.154C76.6823 18.946 76.6383 18.704 76.6383 18.428C76.6383 18.196 76.6983 17.968 76.8183 17.744C76.9423 17.516 77.1463 17.312 77.4303 17.132C77.7143 16.948 78.0923 16.796 78.5643 16.676C79.0363 16.556 79.6223 16.488 80.3223 16.472V16.112C80.3223 15.7 80.2343 15.396 80.0583 15.2C79.8863 15 79.6343 14.9 79.3023 14.9C79.0623 14.9 78.8623 14.928 78.7023 14.984C78.5423 15.04 78.4023 15.104 78.2823 15.176C78.1663 15.244 78.0583 15.306 77.9583 15.362C77.8583 15.418 77.7483 15.446 77.6283 15.446C77.5283 15.446 77.4423 15.42 77.3703 15.368C77.2983 15.316 77.2403 15.252 77.1963 15.176L76.9263 14.702C77.6343 14.054 78.4883 13.73 79.4883 13.73C79.8483 13.73 80.1683 13.79 80.4483 13.91C80.7323 14.026 80.9723 14.19 81.1683 14.402C81.3643 14.61 81.5123 14.86 81.6123 15.152C81.7163 15.444 81.7683 15.764 81.7683 16.112V20ZM78.8883 19.076C79.0403 19.076 79.1803 19.062 79.3083 19.034C79.4363 19.006 79.5563 18.964 79.6683 18.908C79.7843 18.852 79.8943 18.784 79.9983 18.704C80.1063 18.62 80.2143 18.522 80.3223 18.41V17.372C79.8903 17.392 79.5283 17.43 79.2363 17.486C78.9483 17.538 78.7163 17.606 78.5403 17.69C78.3643 17.774 78.2383 17.872 78.1623 17.984C78.0903 18.096 78.0543 18.218 78.0543 18.35C78.0543 18.61 78.1303 18.796 78.2823 18.908C78.4383 19.02 78.6403 19.076 78.8883 19.076ZM85.3556 13.736C85.6196 13.736 85.8676 13.764 86.0996 13.82C86.3316 13.872 86.5436 13.95 86.7356 14.054H88.5056V14.606C88.5056 14.698 88.4816 14.77 88.4336 14.822C88.3856 14.874 88.3036 14.91 88.1876 14.93L87.6356 15.032C87.6756 15.136 87.7056 15.246 87.7256 15.362C87.7496 15.478 87.7616 15.6 87.7616 15.728C87.7616 16.032 87.6996 16.308 87.5756 16.556C87.4556 16.8 87.2876 17.008 87.0716 17.18C86.8596 17.352 86.6056 17.486 86.3096 17.582C86.0176 17.674 85.6996 17.72 85.3556 17.72C85.1236 17.72 84.8976 17.698 84.6776 17.654C84.4856 17.77 84.3896 17.9 84.3896 18.044C84.3896 18.168 84.4456 18.26 84.5576 18.32C84.6736 18.376 84.8236 18.416 85.0076 18.44C85.1956 18.464 85.4076 18.48 85.6436 18.488C85.8796 18.492 86.1216 18.504 86.3696 18.524C86.6176 18.544 86.8596 18.58 87.0956 18.632C87.3316 18.68 87.5416 18.758 87.7256 18.866C87.9136 18.974 88.0636 19.122 88.1756 19.31C88.2916 19.494 88.3496 19.732 88.3496 20.024C88.3496 20.296 88.2816 20.56 88.1456 20.816C88.0136 21.072 87.8196 21.3 87.5636 21.5C87.3116 21.7 87.0016 21.86 86.6336 21.98C86.2656 22.104 85.8456 22.166 85.3736 22.166C84.9056 22.166 84.4996 22.12 84.1556 22.028C83.8116 21.94 83.5256 21.82 83.2976 21.668C83.0736 21.52 82.9056 21.348 82.7936 21.152C82.6816 20.956 82.6256 20.752 82.6256 20.54C82.6256 20.252 82.7136 20.01 82.8896 19.814C83.0656 19.618 83.3096 19.462 83.6216 19.346C83.4696 19.262 83.3476 19.15 83.2556 19.01C83.1636 18.87 83.1176 18.688 83.1176 18.464C83.1176 18.372 83.1336 18.278 83.1656 18.182C83.1976 18.082 83.2456 17.984 83.3096 17.888C83.3776 17.792 83.4616 17.702 83.5616 17.618C83.6616 17.53 83.7796 17.452 83.9156 17.384C83.6036 17.216 83.3576 16.992 83.1776 16.712C83.0016 16.432 82.9136 16.104 82.9136 15.728C82.9136 15.424 82.9736 15.15 83.0936 14.906C83.2176 14.658 83.3876 14.448 83.6036 14.276C83.8236 14.1 84.0816 13.966 84.3776 13.874C84.6776 13.782 85.0036 13.736 85.3556 13.736ZM86.9816 20.276C86.9816 20.156 86.9456 20.058 86.8736 19.982C86.8016 19.906 86.7036 19.848 86.5796 19.808C86.4556 19.764 86.3096 19.732 86.1416 19.712C85.9776 19.692 85.8016 19.678 85.6136 19.67C85.4296 19.658 85.2376 19.648 85.0376 19.64C84.8416 19.628 84.6516 19.61 84.4676 19.586C84.2996 19.678 84.1636 19.788 84.0596 19.916C83.9596 20.04 83.9096 20.184 83.9096 20.348C83.9096 20.456 83.9356 20.556 83.9876 20.648C84.0436 20.744 84.1296 20.826 84.2456 20.894C84.3656 20.962 84.5196 21.014 84.7076 21.05C84.8956 21.09 85.1256 21.11 85.3976 21.11C85.6736 21.11 85.9116 21.088 86.1116 21.044C86.3116 21.004 86.4756 20.946 86.6036 20.87C86.7356 20.798 86.8316 20.71 86.8916 20.606C86.9516 20.506 86.9816 20.396 86.9816 20.276ZM85.3556 16.772C85.5396 16.772 85.6996 16.748 85.8356 16.7C85.9716 16.648 86.0836 16.578 86.1716 16.49C86.2636 16.402 86.3316 16.296 86.3756 16.172C86.4236 16.048 86.4476 15.912 86.4476 15.764C86.4476 15.46 86.3556 15.22 86.1716 15.044C85.9916 14.864 85.7196 14.774 85.3556 14.774C84.9916 14.774 84.7176 14.864 84.5336 15.044C84.3536 15.22 84.2636 15.46 84.2636 15.764C84.2636 15.908 84.2856 16.042 84.3296 16.166C84.3776 16.29 84.4456 16.398 84.5336 16.49C84.6256 16.578 84.7396 16.648 84.8756 16.7C85.0156 16.748 85.1756 16.772 85.3556 16.772ZM91.9805 13.748C92.3685 13.748 92.7245 13.81 93.0485 13.934C93.3765 14.058 93.6585 14.24 93.8945 14.48C94.1305 14.716 94.3145 15.008 94.4465 15.356C94.5785 15.7 94.6445 16.094 94.6445 16.538C94.6445 16.65 94.6385 16.744 94.6265 16.82C94.6185 16.892 94.6005 16.95 94.5725 16.994C94.5485 17.034 94.5145 17.064 94.4705 17.084C94.4265 17.1 94.3705 17.108 94.3025 17.108H90.4985C90.5425 17.74 90.7125 18.204 91.0085 18.5C91.3045 18.796 91.6965 18.944 92.1845 18.944C92.4245 18.944 92.6305 18.916 92.8025 18.86C92.9785 18.804 93.1305 18.742 93.2585 18.674C93.3905 18.606 93.5045 18.544 93.6005 18.488C93.7005 18.432 93.7965 18.404 93.8885 18.404C93.9485 18.404 94.0005 18.416 94.0445 18.44C94.0885 18.464 94.1265 18.498 94.1585 18.542L94.5905 19.082C94.4265 19.274 94.2425 19.436 94.0385 19.568C93.8345 19.696 93.6205 19.8 93.3965 19.88C93.1765 19.956 92.9505 20.01 92.7185 20.042C92.4905 20.074 92.2685 20.09 92.0525 20.09C91.6245 20.09 91.2265 20.02 90.8585 19.88C90.4905 19.736 90.1705 19.526 89.8985 19.25C89.6265 18.97 89.4125 18.626 89.2565 18.218C89.1005 17.806 89.0225 17.33 89.0225 16.79C89.0225 16.37 89.0905 15.976 89.2265 15.608C89.3625 15.236 89.5565 14.914 89.8085 14.642C90.0645 14.366 90.3745 14.148 90.7385 13.988C91.1065 13.828 91.5205 13.748 91.9805 13.748ZM92.0105 14.81C91.5785 14.81 91.2405 14.932 90.9965 15.176C90.7525 15.42 90.5965 15.766 90.5285 16.214H93.3125C93.3125 16.022 93.2865 15.842 93.2345 15.674C93.1825 15.502 93.1025 15.352 92.9945 15.224C92.8865 15.096 92.7505 14.996 92.5865 14.924C92.4225 14.848 92.2305 14.81 92.0105 14.81ZM95.4927 19.184C95.4927 19.06 95.5147 18.942 95.5587 18.83C95.6067 18.718 95.6707 18.622 95.7507 18.542C95.8347 18.462 95.9327 18.398 96.0447 18.35C96.1567 18.302 96.2767 18.278 96.4047 18.278C96.5287 18.278 96.6467 18.302 96.7587 18.35C96.8707 18.398 96.9667 18.462 97.0467 18.542C97.1267 18.622 97.1907 18.718 97.2387 18.83C97.2867 18.942 97.3107 19.06 97.3107 19.184C97.3107 19.312 97.2867 19.432 97.2387 19.544C97.1907 19.652 97.1267 19.746 97.0467 19.826C96.9667 19.906 96.8707 19.968 96.7587 20.012C96.6467 20.06 96.5287 20.084 96.4047 20.084C96.2767 20.084 96.1567 20.06 96.0447 20.012C95.9327 19.968 95.8347 19.906 95.7507 19.826C95.6707 19.746 95.6067 19.652 95.5587 19.544C95.5147 19.432 95.4927 19.312 95.4927 19.184ZM98.188 19.184C98.188 19.06 98.21 18.942 98.254 18.83C98.302 18.718 98.366 18.622 98.446 18.542C98.53 18.462 98.628 18.398 98.74 18.35C98.852 18.302 98.972 18.278 99.1 18.278C99.224 18.278 99.342 18.302 99.454 18.35C99.566 18.398 99.662 18.462 99.742 18.542C99.822 18.622 99.886 18.718 99.934 18.83C99.982 18.942 100.006 19.06 100.006 19.184C100.006 19.312 99.982 19.432 99.934 19.544C99.886 19.652 99.822 19.746 99.742 19.826C99.662 19.906 99.566 19.968 99.454 20.012C99.342 20.06 99.224 20.084 99.1 20.084C98.972 20.084 98.852 20.06 98.74 20.012C98.628 19.968 98.53 19.906 98.446 19.826C98.366 19.746 98.302 19.652 98.254 19.544C98.21 19.432 98.188 19.312 98.188 19.184ZM100.883 19.184C100.883 19.06 100.905 18.942 100.949 18.83C100.997 18.718 101.061 18.622 101.141 18.542C101.225 18.462 101.323 18.398 101.435 18.35C101.547 18.302 101.667 18.278 101.795 18.278C101.919 18.278 102.037 18.302 102.149 18.35C102.261 18.398 102.357 18.462 102.437 18.542C102.517 18.622 102.581 18.718 102.629 18.83C102.677 18.942 102.701 19.06 102.701 19.184C102.701 19.312 102.677 19.432 102.629 19.544C102.581 19.652 102.517 19.746 102.437 19.826C102.357 19.906 102.261 19.968 102.149 20.012C102.037 20.06 101.919 20.084 101.795 20.084C101.667 20.084 101.547 20.06 101.435 20.012C101.323 19.968 101.225 19.906 101.141 19.826C101.061 19.746 100.997 19.652 100.949 19.544C100.905 19.432 100.883 19.312 100.883 19.184Z" fill="white"/>
</svg>
