<svg width="14" height="14" viewBox="0 0 14 14" fill="none" xmlns="http://www.w3.org/2000/svg">
<path fill-rule="evenodd" clip-rule="evenodd" d="M7.8125 8.30185C7.8125 8.03213 8.03115 7.81348 8.30087 7.81348H13.5102C13.7799 7.81348 13.9985 8.03213 13.9985 8.30185V13.5112C13.9985 13.7809 13.7799 13.9995 13.5102 13.9995H8.30087C8.03115 13.9995 7.8125 13.7809 7.8125 13.5112V8.30185ZM8.78924 8.79022V13.0228H13.0218V8.79022H8.78924Z" fill="#454545"/>
<path fill-rule="evenodd" clip-rule="evenodd" d="M3.4186 0C3.59504 0 3.75776 0.0951651 3.84426 0.248942L6.77449 5.45824C6.85955 5.60946 6.858 5.79446 6.7704 5.94423C6.68281 6.094 6.52234 6.18605 6.34884 6.18605H0.488372C0.314871 6.18605 0.154396 6.094 0.0668047 5.94423C-0.0207866 5.79446 -0.0223419 5.60946 0.0627189 5.45824L2.99295 0.248942C3.07945 0.0951651 3.24217 0 3.4186 0ZM1.32341 5.2093H5.5138L3.4186 1.48452L1.32341 5.2093Z" fill="#454545"/>
<path fill-rule="evenodd" clip-rule="evenodd" d="M8.71843 0.905926C9.29848 0.325871 10.0852 0 10.9055 0C11.7258 0 12.5126 0.325871 13.0926 0.905926C13.6727 1.48598 13.9985 2.2727 13.9985 3.09302C13.9985 3.91334 13.6727 4.70007 13.0926 5.28012C12.5126 5.86018 11.7258 6.18605 10.9055 6.18605C10.0852 6.18605 9.29848 5.86018 8.71843 5.28012C8.13837 4.70007 7.8125 3.91334 7.8125 3.09302C7.8125 2.2727 8.13837 1.48598 8.71843 0.905926ZM10.9055 0.976744C10.3443 0.976744 9.80597 1.19971 9.40909 1.59659C9.01221 1.99347 8.78924 2.53175 8.78924 3.09302C8.78924 3.6543 9.01221 4.19258 9.40909 4.58946C9.80597 4.98634 10.3443 5.2093 10.9055 5.2093C11.4668 5.2093 12.0051 4.98634 12.402 4.58946C12.7988 4.19258 13.0218 3.6543 13.0218 3.09302C13.0218 2.53175 12.7988 1.99347 12.402 1.59659C12.0051 1.19971 11.4668 0.976744 10.9055 0.976744Z" fill="#454545"/>
<path fill-rule="evenodd" clip-rule="evenodd" d="M0.143041 7.95652C0.333762 7.7658 0.642982 7.7658 0.833703 7.95652L6.04301 13.1658C6.23373 13.3565 6.23373 13.6658 6.04301 13.8565C5.85228 14.0472 5.54306 14.0472 5.35234 13.8565L0.143041 8.64718C-0.0476803 8.45646 -0.0476803 8.14724 0.143041 7.95652Z" fill="#454545"/>
<path fill-rule="evenodd" clip-rule="evenodd" d="M6.04301 7.95652C6.23373 8.14724 6.23373 8.45646 6.04301 8.64718L0.833703 13.8565C0.642982 14.0472 0.333762 14.0472 0.143041 13.8565C-0.0476803 13.6658 -0.0476803 13.3565 0.143041 13.1658L5.35234 7.95652C5.54306 7.7658 5.85228 7.7658 6.04301 7.95652Z" fill="#454545"/>
</svg>
