<svg width="16" height="15" viewBox="0 0 16 15" fill="none" xmlns="http://www.w3.org/2000/svg">
<path fill-rule="evenodd" clip-rule="evenodd" d="M3.05991 10.6636C3.15913 10.7632 3.23516 10.8835 3.28258 11.0158C3.33 11.1482 3.34765 11.2894 3.33426 11.4293C3.26708 12.077 3.13971 12.717 2.95381 13.3411C4.28729 13.0324 5.10173 12.6749 5.47166 12.4875C5.68149 12.3812 5.92312 12.356 6.15035 12.4168C6.80174 12.5904 7.4731 12.6778 8.14724 12.6768C11.967 12.6768 14.8386 9.99354 14.8386 6.94133C14.8386 3.89009 11.967 1.2059 8.14724 1.2059C4.32744 1.2059 1.4559 3.89009 1.4559 6.94133C1.4559 8.3446 2.0457 9.64655 3.05991 10.6636ZM2.58865 14.3964C2.36217 14.4413 2.13495 14.4824 1.90709 14.5197C1.71591 14.5503 1.57061 14.3515 1.64613 14.1737C1.73101 13.9735 1.8088 13.7704 1.87937 13.5648L1.88224 13.5552C2.1193 12.867 2.3124 12.0755 2.38313 11.3385C1.21024 10.1627 0.5 8.62373 0.5 6.94133C0.5 3.24581 3.92405 0.25 8.14724 0.25C12.3704 0.25 15.7945 3.24581 15.7945 6.94133C15.7945 10.6369 12.3704 13.6327 8.14724 13.6327C7.38983 13.6337 6.63556 13.5353 5.90373 13.3402C5.40666 13.5916 4.337 14.0494 2.58865 14.3964Z" fill="#3A3A3A"/>
<path fill-rule="evenodd" clip-rule="evenodd" d="M4.32422 4.55119C4.32422 4.42443 4.37457 4.30286 4.46421 4.21323C4.55384 4.1236 4.67541 4.07324 4.80217 4.07324H11.4935C11.6203 4.07324 11.7418 4.1236 11.8315 4.21323C11.9211 4.30286 11.9715 4.42443 11.9715 4.55119C11.9715 4.67796 11.9211 4.79952 11.8315 4.88916C11.7418 4.97879 11.6203 5.02915 11.4935 5.02915H4.80217C4.67541 5.02915 4.55384 4.97879 4.46421 4.88916C4.37457 4.79952 4.32422 4.67796 4.32422 4.55119ZM4.32422 6.94096C4.32422 6.8142 4.37457 6.69263 4.46421 6.60299C4.55384 6.51336 4.67541 6.463 4.80217 6.463H11.4935C11.6203 6.463 11.7418 6.51336 11.8315 6.60299C11.9211 6.69263 11.9715 6.8142 11.9715 6.94096C11.9715 7.06772 11.9211 7.18929 11.8315 7.27892C11.7418 7.36855 11.6203 7.41891 11.4935 7.41891H4.80217C4.67541 7.41891 4.55384 7.36855 4.46421 7.27892C4.37457 7.18929 4.32422 7.06772 4.32422 6.94096ZM4.32422 9.33072C4.32422 9.20396 4.37457 9.08239 4.46421 8.99275C4.55384 8.90312 4.67541 8.85277 4.80217 8.85277H8.62579C8.75255 8.85277 8.87412 8.90312 8.96375 8.99275C9.05339 9.08239 9.10374 9.20396 9.10374 9.33072C9.10374 9.45748 9.05339 9.57905 8.96375 9.66868C8.87412 9.75832 8.75255 9.80867 8.62579 9.80867H4.80217C4.67541 9.80867 4.55384 9.75832 4.46421 9.66868C4.37457 9.57905 4.32422 9.45748 4.32422 9.33072Z" fill="#3A3A3A"/>
</svg>
