<svg width="82" height="31" viewBox="0 0 82 31" fill="none" xmlns="http://www.w3.org/2000/svg">
<rect x="4.19531" y="4" width="9.17819" height="8.78182" fill="#00B87C"/>
<rect x="1.13672" y="14.0361" width="9.17819" height="8.78182" fill="#FEA162"/>
<rect x="14.6836" y="8.18164" width="9.17819" height="8.78182" fill="#1A61DB"/>
<rect x="11.625" y="18.2178" width="9.17819" height="8.78182" fill="#DC1AA3"/>
<path d="M41.4865 10.724C41.4865 10.9693 41.4171 11.1933 41.2785 11.396L35.3425 19.78H41.3505V21.5H32.5505V20.652C32.5505 20.5453 32.5691 20.444 32.6065 20.348C32.6438 20.2467 32.6918 20.1533 32.7505 20.068L38.7025 11.644H32.9265V9.932H41.4865V10.724ZM51.7526 19.764C52.1686 19.764 52.5393 19.6947 52.8646 19.556C53.1953 19.4173 53.4726 19.2227 53.6966 18.972C53.9206 18.7213 54.0913 18.4173 54.2086 18.06C54.3313 17.7027 54.3926 17.3027 54.3926 16.86V9.932H56.5446V16.86C56.5446 17.548 56.4326 18.1853 56.2086 18.772C55.9899 19.3533 55.6726 19.8573 55.2566 20.284C54.8459 20.7053 54.3446 21.036 53.7526 21.276C53.1606 21.5107 52.4939 21.628 51.7526 21.628C51.0059 21.628 50.3366 21.5107 49.7446 21.276C49.1526 21.036 48.6486 20.7053 48.2326 20.284C47.8219 19.8573 47.5046 19.3533 47.2806 18.772C47.0619 18.1853 46.9526 17.548 46.9526 16.86V9.932H49.1046V16.852C49.1046 17.2947 49.1633 17.6947 49.2806 18.052C49.4033 18.4093 49.5766 18.716 49.8006 18.972C50.0299 19.2227 50.3073 19.4173 50.6326 19.556C50.9633 19.6947 51.3366 19.764 51.7526 19.764ZM66.3582 15.436C66.7636 15.436 67.1156 15.3853 67.4142 15.284C67.7182 15.1827 67.9662 15.044 68.1582 14.868C68.3556 14.6867 68.5022 14.4733 68.5982 14.228C68.6942 13.9827 68.7422 13.7133 68.7422 13.42C68.7422 12.8333 68.5476 12.3827 68.1582 12.068C67.7742 11.7533 67.1849 11.596 66.3902 11.596H65.0142V15.436H66.3582ZM71.8942 21.5H69.9502C69.5822 21.5 69.3156 21.356 69.1502 21.068L66.7182 17.364C66.6276 17.2253 66.5262 17.1267 66.4142 17.068C66.3076 17.0093 66.1476 16.98 65.9342 16.98H65.0142V21.5H62.8622V9.932H66.3902C67.1742 9.932 67.8462 10.0147 68.4062 10.18C68.9716 10.34 69.4329 10.5667 69.7902 10.86C70.1529 11.1533 70.4196 11.5053 70.5902 11.916C70.7609 12.3213 70.8462 12.7693 70.8462 13.26C70.8462 13.6493 70.7876 14.0173 70.6702 14.364C70.5582 14.7107 70.3929 15.0253 70.1742 15.308C69.9609 15.5907 69.6942 15.8387 69.3742 16.052C69.0596 16.2653 68.6996 16.4333 68.2942 16.556C68.4329 16.636 68.5609 16.732 68.6782 16.844C68.7956 16.9507 68.9022 17.0787 68.9982 17.228L71.8942 21.5ZM79.1941 21.5H77.0341V9.932H79.1941V21.5Z" fill="white"/>
</svg>
